<svg height="120" viewBox="0 0 170 120" width="170" xmlns="http://www.w3.org/2000/svg"><g fill="none" fill-rule="evenodd"><g fill-rule="nonzero"><path d="m10 10h150v100h-150z" fill="#fff"/><g fill="#e70d28"><path d="m10 10h150v8h-150z"/><path d="m10 25h150v8h-150z"/><path d="m10 41h150v8h-150z"/><path d="m10 56h150v8h-150z"/><path d="m10 71h150v8h-150z"/><path d="m10 87h150v8h-150z"/><path d="m10 102h150v8h-150z"/></g><path d="m10 10h76v54h-76z" fill="#272d6a"/><g fill="#fff" transform="translate(14 12)"><path d="m2.99058266 0 .70584591 2.20147688h2.28473676l-1.84773929 1.35973571.70584591 2.20147688-1.84868929-1.36068792-1.84773929 1.36068792.70584591-2.20147688-1.84868928-1.35973571h2.28473676z"/><path d="m9.20829662 5.53321026.70584591 2.20052468h2.28473677l-1.8477393 1.35973572.7058459 2.20147684-1.84868928-1.36068788-1.84773929 1.36068788.70584591-2.20147684-1.84868928-1.35973572h2.28473675z"/><path d="m9.20829662 16.3425379.70584591 2.2005247h2.28473677l-1.8477393 1.3606879.7058459 2.2005247-1.84868928-1.3597358-1.84773929 1.3597358.70584591-2.2005247-1.84868928-1.3606879h2.28473675z"/><path d="m9.20829662 27.1518655.70584591 2.2005247h2.28473677l-1.8477393 1.3606879.7058459 2.2005247-1.84868928-1.3597357-1.84773929 1.3597357.70584591-2.2005247-1.84868928-1.3606879h2.28473675z"/><path d="m9.20829662 37.9611932.70584591 2.2005246h2.28473677l-1.8477393 1.360688.7058459 2.2005246-1.84868928-1.3597357-1.84773929 1.3597357.70584591-2.2005246-1.84868928-1.360688h2.28473675z"/><path d="m21.8118736 5.53321026.7058459 2.20052468h2.2847367l-1.8477393 1.35973572.7058459 2.20147684-1.8486892-1.36068788-1.8477393 1.36068788.7058459-2.20147684-1.8486893-1.35973572h2.2847367z"/><path d="m21.8118736 16.3425379.7058459 2.2005247h2.2847367l-1.8477393 1.3606879.7058459 2.2005247-1.8486892-1.3597358-1.8477393 1.3597358.7058459-2.2005247-1.8486893-1.3606879h2.2847367z"/><path d="m21.8118736 27.1518655.7058459 2.2005247h2.2847367l-1.8477393 1.3606879.7058459 2.2005247-1.8486892-1.3597357-1.8477393 1.3597357.7058459-2.2005247-1.8486893-1.3606879h2.2847367z"/><path d="m21.8118736 37.9611932.7058459 2.2005246h2.2847367l-1.8477393 1.360688.7058459 2.2005246-1.8486892-1.3597357-1.8477393 1.3597357.7058459-2.2005246-1.8486893-1.360688h2.2847367z"/><path d="m34.4154505 5.53321026.7067959 2.20052468h2.2837868l-1.8477393 1.35973572.7058459 2.20147684-1.8486893-1.36068788-1.8477393 1.36068788.7058459-2.20147684-1.8486893-1.35973572h2.2847368z"/><path d="m34.4154505 16.3425379.7067959 2.2005247h2.2837868l-1.8477393 1.3606879.7058459 2.2005247-1.8486893-1.3597358-1.8477393 1.3597358.7058459-2.2005247-1.8486893-1.3606879h2.2847368z"/><path d="m34.4154505 27.1518655.7067959 2.2005247h2.2837868l-1.8477393 1.3606879.7058459 2.2005247-1.8486893-1.3597357-1.8477393 1.3597357.7058459-2.2005247-1.8486893-1.3606879h2.2847368z"/><path d="m34.4154505 37.9611932.7067959 2.2005246h2.2837868l-1.8477393 1.360688.7058459 2.2005246-1.8486893-1.3597357-1.8477393 1.3597357.7058459-2.2005246-1.8486893-1.360688h2.2847368z"/><path d="m47.0190274 5.53321026.7067959 2.20052468h2.2847368l-1.8486893 1.35973572.7058459 2.20147684-1.8486893-1.36068788-1.8477393 1.36068788.7058459-2.20147684-1.8486892-1.35973572h2.2847367z"/><path d="m47.0190274 16.3425379.7067959 2.2005247h2.2847368l-1.8486893 1.3606879.7058459 2.2005247-1.8486893-1.3597358-1.8477393 1.3597358.7058459-2.2005247-1.8486892-1.3606879h2.2847367z"/><path d="m47.0190274 27.1518655.7067959 2.2005247h2.2847368l-1.8486893 1.3606879.7058459 2.2005247-1.8486893-1.3597357-1.8477393 1.3597357.7058459-2.2005247-1.8486892-1.3606879h2.2847367z"/><path d="m47.0190274 37.9611932.7067959 2.2005246h2.2847368l-1.8486893 1.360688.7058459 2.2005246-1.8486893-1.3597357-1.8477393 1.3597357.7058459-2.2005246-1.8486892-1.360688h2.2847367z"/><path d="m59.6235544 5.53321026.7058459 2.20052468h2.2837867l-1.8477393 1.35973572.7058459 2.20147684-1.8477392-1.36068788-1.8486893 1.36068788.7058459-2.20147684-1.8477393-1.35973572h2.2837868z"/><path d="m59.6235544 16.3425379.7058459 2.2005247h2.2837867l-1.8477393 1.3606879.7058459 2.2005247-1.8477392-1.3597358-1.8486893 1.3597358.7058459-2.2005247-1.8477393-1.3606879h2.2837868z"/><path d="m59.6235544 27.1518655.7058459 2.2005247h2.2837867l-1.8477393 1.3606879.7058459 2.2005247-1.8477392-1.3597357-1.8486893 1.3597357.7058459-2.2005247-1.8477393-1.3606879h2.2837868z"/><path d="m59.6235544 37.9611932.7058459 2.2005246h2.2837867l-1.8477393 1.360688.7058459 2.2005246-1.8477392-1.3597357-1.8486893 1.3597357.7058459-2.2005246-1.8477393-1.360688h2.2837868z"/><path d="m2.99058266 10.8093276.70584591 2.2014769h2.28473676l-1.84773929 1.3597357.70584591 2.2014769-1.84868929-1.3606879-1.84773929 1.3606879.70584591-2.2014769-1.84868928-1.3597357h2.28473676z"/><path d="m2.99058266 21.6196075.70584591 2.2005246h2.28473676l-1.84773929 1.360688.70584591 2.2005246-1.84868929-1.3597357-1.84773929 1.3597357.70584591-2.2005246-1.84868928-1.360688h2.28473676z"/><path d="m2.99058266 32.4289351.70584591 2.2005247h2.28473676l-1.84773929 1.3606879.70584591 2.2005247-1.84868929-1.3597358-1.84773929 1.3597358.70584591-2.2005247-1.84868928-1.3606879h2.28473676z"/><path d="m2.99058266 43.2382627.70584591 2.2005247h2.28473676l-1.84773929 1.3606879.70584591 2.2005247-1.84868929-1.3597357-1.84773929 1.3597357.70584591-2.2005247-1.84868928-1.3606879h2.28473676z"/><path d="m15.4260106 0 .7058459 2.20147688h2.2847367l-1.8477393 1.35973571.705846 2.20147688-1.8486893-1.36068792-1.8477393 1.36068792.7058459-2.20147688-1.8486893-1.35973571h2.2847368z"/><path d="m15.4260106 10.8093276.7058459 2.2014769h2.2847367l-1.8477393 1.3597357.705846 2.2014769-1.8486893-1.3606879-1.8477393 1.3606879.7058459-2.2014769-1.8486893-1.3597357h2.2847368z"/><path d="m15.4260106 21.6196075.7058459 2.2005246h2.2847367l-1.8477393 1.360688.705846 2.2005246-1.8486893-1.3597357-1.8477393 1.3597357.7058459-2.2005246-1.8486893-1.360688h2.2847368z"/><path d="m15.4260106 32.4289351.7058459 2.2005247h2.2847367l-1.8477393 1.3606879.705846 2.2005247-1.8486893-1.3597358-1.8477393 1.3597358.7058459-2.2005247-1.8486893-1.3606879h2.2847368z"/><path d="m15.4260106 43.2382627.7058459 2.2005247h2.2847367l-1.8477393 1.3606879.705846 2.2005247-1.8486893-1.3597357-1.8477393 1.3597357.7058459-2.2005247-1.8486893-1.3606879h2.2847368z"/><path d="m28.1977365 0 .7067959 2.20147688h2.2837868l-1.8477393 1.35973571.7058459 2.20147688-1.8486893-1.36068792-1.8477393 1.36068792.705846-2.20147688-1.8486893-1.35973571h2.2847367z"/><path d="m28.1977365 10.8093276.7067959 2.2014769h2.2837868l-1.8477393 1.3597357.7058459 2.2014769-1.8486893-1.3606879-1.8477393 1.3606879.705846-2.2014769-1.8486893-1.3597357h2.2847367z"/><path d="m28.1977365 21.6196075.7067959 2.2005246h2.2837868l-1.8477393 1.360688.7058459 2.2005246-1.8486893-1.3597357-1.8477393 1.3597357.705846-2.2005246-1.8486893-1.360688h2.2847367z"/><path d="m28.1977365 32.4289351.7067959 2.2005247h2.2837868l-1.8477393 1.3606879.7058459 2.2005247-1.8486893-1.3597358-1.8477393 1.3597358.705846-2.2005247-1.8486893-1.3606879h2.2847367z"/><path d="m28.1977365 43.2382627.7067959 2.2005247h2.2837868l-1.8477393 1.3606879.7058459 2.2005247-1.8486893-1.3597357-1.8477393 1.3597357.705846-2.2005247-1.8486893-1.3606879h2.2847367z"/><path d="m40.717714 0 .7058459 2.20147688h2.2847367l-1.8486893 1.35973571.7058459 2.20147688-1.8477392-1.36068792-1.8486893 1.36068792.7067959-2.20147688-1.8486893-1.35973571h2.2847367z"/><path d="m40.717714 10.8093276.7058459 2.2014769h2.2847367l-1.8486893 1.3597357.7058459 2.2014769-1.8477392-1.3606879-1.8486893 1.3606879.7067959-2.2014769-1.8486893-1.3597357h2.2847367z"/><path d="m40.717714 21.6196075.7058459 2.2005246h2.2847367l-1.8486893 1.360688.7058459 2.2005246-1.8477392-1.3597357-1.8486893 1.3597357.7067959-2.2005246-1.8486893-1.360688h2.2847367z"/><path d="m40.717714 32.4289351.7058459 2.2005247h2.2847367l-1.8486893 1.3606879.7058459 2.2005247-1.8477392-1.3597358-1.8486893 1.3597358.7067959-2.2005247-1.8486893-1.3606879h2.2847367z"/><path d="m40.717714 43.2382627.7058459 2.2005247h2.2847367l-1.8486893 1.3606879.7058459 2.2005247-1.8477392-1.3597357-1.8486893 1.3597357.7067959-2.2005247-1.8486893-1.3606879h2.2847367z"/><path d="m53.2376914 0 .7058459 2.20147688h2.2847367l-1.8486892 1.35973571.7058459 2.20147688-1.8477393-1.36068792-1.8486893 1.36068792.7058459-2.20147688-1.8477393-1.35973571h2.2837868z"/><path d="m53.2376914 10.8093276.7058459 2.2014769h2.2847367l-1.8486892 1.3597357.7058459 2.2014769-1.8477393-1.3606879-1.8486893 1.3606879.7058459-2.2014769-1.8477393-1.3597357h2.2837868z"/><path d="m53.2376914 21.6196075.7058459 2.2005246h2.2847367l-1.8486892 1.360688.7058459 2.2005246-1.8477393-1.3597357-1.8486893 1.3597357.7058459-2.2005246-1.8477393-1.360688h2.2837868z"/><path d="m53.2376914 32.4289351.7058459 2.2005247h2.2847367l-1.8486892 1.3606879.7058459 2.2005247-1.8477393-1.3597358-1.8486893 1.3597358.7058459-2.2005247-1.8477393-1.3606879h2.2837868z"/><path d="m53.2376914 43.2382627.7058459 2.2005247h2.2847367l-1.8486892 1.3606879.7058459 2.2005247-1.8477393-1.3597357-1.8486893 1.3597357.7058459-2.2005247-1.8477393-1.3606879h2.2837868z"/><path d="m66.0084673 0 .7067959 2.20147688h2.2847368l-1.8486893 1.35973571.7058459 2.20147688-1.8486893-1.36068792-1.8477392 1.36068792.7058459-2.20147688-1.8486893-1.35973571h2.2847367z"/><path d="m66.0084673 10.8093276.7067959 2.2014769h2.2847368l-1.8486893 1.3597357.7058459 2.2014769-1.8486893-1.3606879-1.8477392 1.3606879.7058459-2.2014769-1.8486893-1.3597357h2.2847367z"/><path d="m66.0084673 21.6196075.7067959 2.2005246h2.2847368l-1.8486893 1.360688.7058459 2.2005246-1.8486893-1.3597357-1.8477392 1.3597357.7058459-2.2005246-1.8486893-1.360688h2.2847367z"/><path d="m66.0084673 32.4289351.7067959 2.2005247h2.2847368l-1.8486893 1.3606879.7058459 2.2005247-1.8486893-1.3597358-1.8477392 1.3597358.7058459-2.2005247-1.8486893-1.3606879h2.2847367z"/><path d="m66.0084673 43.2382627.7067959 2.2005247h2.2847368l-1.8486893 1.3606879.7058459 2.2005247-1.8486893-1.3597357-1.8477392 1.3597357.7058459-2.2005247-1.8486893-1.3606879h2.2847367z"/></g></g><rect height="110" rx="15" stroke="#f4ede4" stroke-width="11" width="160" x="5" y="5"/></g></svg>