<svg height="42" viewBox="0 0 100 42" width="100" xmlns="http://www.w3.org/2000/svg">
<g fill="#fff" transform="translate(-.000084 -.000167)">
<path d="m94.0232699 13.4426341c-1.0832396.097896-2.0643269-.0558645-2.8788847-.2750662-1.0725987-.2894314-1.8786439-.6996365-2.2665032-.9326714-.629939-.3628533-.8752108-.6592013-.7230465-.8422241.3202899-.4314868 1.7163707.0590568 1.497169-.3357191-.3942438-.6985725-2.1941453-2.04357718-3.4433823-2.32715611-.5714142-.13141462-1.0406761-.05107612-1.1827316.38892344-.5027806 1.54718107 2.1909531 4.14355097 3.2640838 4.42606577.0191536.0047884.0191536.0053204.0393712.0101088.8182822.172914 1.4673746-.2021763 2.2005299-.0074486.0595888.0159613.1149213.0478839.1745101.0638452 1.8722593.7480524-1.1215467 5.1751823-2.4755961 4.8235019-.0574607-.0143652-.110665-.0457557-.1644013-.0766142-.7884877-.5075691-.5974843-1.409382-1.1720907-2.3314125-.5144856-.8384998-1.1454886-1.3258512-1.6163467-1.4359841-.5309789-.124498-.8741467.2037725-.7129376 1.0162022.2952838 1.3923565 2.5266722 5.1810348 3.9876623 5.5827272.037243.0101089.098428.0090448.136203.0191536 1.1486809.1574847.8502047-1.8488495 1.4812077-2.5804086.3240142-.3543406.680483-.4442559 1.026311-.3474241.5767346.160677 1.1210146.7954043 1.5083419 1.5780396.6959123 1.4035294 1.5822959 4.8219057-.656541 4.7107088-.815622-.0202177-1.7844723-.2500603-2.7437458-.5160818-1.0694065-.29688-2.1425372-.6496245-3.1060671-.8943642-.259637-.0654413-.5006525-.1260942-.7459243-.1702538-.841692-.1761062-1.7855363-.333591-2.6219079-.5251265-.9858757-.2261182-1.8424649-.495332-2.2228757-.9119217-.4777746-.5049088-.2910275-1.1199505.0015961-2.5032623.2027084-.8645699.6565411-2.8192959 1.0364198-4.9075647.4485123-2.4090907.7528409-4.96555737.8693583-5.63061112.3011363-1.74510106.6873995-2.17445977 3.5673483-1.75042149 1.2375321.19525978 3.0321131.53736343 4.8006241.99651655 2.8607952.73421935 5.6242266 1.76531869 5.9971887 2.56763956.5953562 1.3003131-.9800232 2.9432619-2.8549427 3.118304m-8.8627724 14.7753663c-.6208942.9949205-1.7999015 1.0523811-2.9166598.7895519-1.0279071-.2436757-2.0116546-.7640138-2.4633591-1.0970727-1.1162262-.8097695-.0324546-1.7727673.1191776-1.756806.3511484.0414993.1803626.4761785.4501084.5347032.036711.0079807.0760822 0 .1340749-.0047884.5112933-.0883191.1947277-.6991045-.5224663-.9880038-.087255-.0351149-.1925995-.0744861-.3016684-.097896-.8193462-.1750421-2.1675432.0436276-2.0520898.8885119.1670615 1.1497449 2.5585948 2.1521139 3.5992709 2.7192718 2.9086791 1.5870843 3.2071552 4.7224137 2.3989819 6.6792679-.8278589 2.0691152-3.2901539 3.4880739-6.8074902 2.7389574-.1808947-.0383071-.3617893-.0760822-.5394917-.1298185-3.9690408-1.0428043-5.4709982-3.227905-4.7410352-5.9540933.5533247-2.0084624 1.8387407-2.6522344 3.3497428-2.37504.4910757.0899153.9986447.2862391 1.5264314.557049 3.2752567 1.7552099 1.7371204 3.8365621.5128894 3.5742649-.1532284-.0308584-.2825148-.0909793-.4229742-.186747-.4969281-.3511484.5501325-.4261665-.0271342-.8273269-.0792744-.04948-.161741-.0824667-.2474-.0994921-.5682219-.111197-1.1438924.4969282-.2591049 1.2061415.3937118.3293347.9757669.581523 1.5844241.7097454 1.0305673.2165415 2.1297681.0633131 2.3803604-.8576533.6496245-2.4309045-3.3986907-4.0382064-5.2645656-5.2688219-2.5777483-1.7030697-1.7435049-4.0153286-.4144615-5.3145776 1.2306155-1.225295 3.2896219-1.596129 5.5747467-1.1194185.594292.123434 1.2146541.3075209 1.8408688.5474723 2.9730563 1.1859238 4.4500077 3.6822696 3.5088236 5.1326188m-14.7477001 7.3757122c-.2607011 1.2077377-.6161058 1.5157906-1.4460929 1.5095027-.2037725.0025636-.7517768-.0777749-1.4998292-.1788631-2.0089944-.2867712-5.3864034-.7022968-6.8245157-.8076413-.1665294-.0143651-.3170976-.0255381-.433615-.0351148-.0670374-.0053205-.1170495-.0090448-.1840869-.0138331-1.2348718-.0931076-1.3694787-.6081252-1.2226348-1.5386684.1649333-.9614017.7065531-8.0428941.7166619-9.5251659-.0021282-1.4828039-.7879557-3.2976026.5027807-4.3489196.5772666-.4719221 1.6663587-.5895036 2.7373612-.495332 1.4673746.1266262 2.9124034.6464322 3.1560791 1.1534692.3319949.7315592-.3894554 2.635209-1.0199264 2.5032624-.2708099-.061185-.1846189-.7140017-.6405798-.8092374-.4038206-.0728899-.7980645 5.0927156-.9321393 6.6154227-.1303506 1.6567819-.4926719 3.797723.5910997 4.1084361.7741226.0766142 2.8581351-1.5274955 3.1353295-2.2345806.2330348-.5857794-1.2699867-.2729381-1.0678103-1.0747269.2064326-.8927682 2.7256563-1.2545574 3.6099118-1.1199505.9885359.1431195 1.3668184.9523569 1.4514133 1.4311956.1154533.5171458-.383071 3.6349179-.6294069 4.8607449m-12.371064-16.5699473c-1.5705909-.086191-3.1225604-.5357673-4.2872025-1.4194908-3.1890658-2.3979178-2.5165634-12.52801663-2.4575067-13.80119554.0260702-.95342106 1.4844-1.27264687 3.0464783-1.23114751 1.5189828.03777505 3.1071312.42084601 3.5902262.84115999 1.1438925 1.03003526.2676176 4.32178533-1.150277 4.25900426-.0202176-.00053204-.0611849-.00266022-.0814026-.00319226-.7544369-.09576774.011705-1.72807568-.9470365-2.09305718-.061717-.01915355-.1021523-.03617893-.1441837-.03777506-.7475204-.02553806-1.0055612 1.86055439-.7821032 3.23109718.6113174 3.49924682 3.0688241 7.71249542 4.564929 7.81411562.0766142.0053204.135671-.0079806.2138813-.0191535 1.5349441-.3421037 1.9935651-8.03704169.9741707-10.56318188-.6597333-1.64028859-.8305191-2.42451998.0500121-2.64904213 1.0720666-.28038666 3.2007707-.14790795 4.3340223-.03937118 2.1436013.20377247 1.3061656 1.08536773.9103256 2.54742191-.3862632 1.53175182-.0420314 7.11607518-1.4817398 10.32801878-.9300112 2.0387888-3.6902503 2.9757166-6.3525935 2.8357893m-1.695089 16.763611c-.0835307-.0042564-.1670615-.0079807-.2340989-.0111729-3.3619798-.1436516-4.3143367-2.8485583-3.8626322-3.4598757.1404593-.1782344.3133733-.2245221.5027806-.2207978.1894073.0031922.4123333.074486.618234.0792744.1894073.0053204.3798787-.0553325.5410877-.2649574.433083-.6017407-2.5335888-3.2098155-4.1456791-3.1943862-.1941957.001064-.3532765.0340507-.4937359.1170494-1.0741948.5852473.0154293 1.8690671 1.2221028 4.1573841.9262869 1.7653187-.1165174 2.5080507-1.5652705 2.7006503-.1175815.0170253-.284111.0351148-.4852232.0383071-.6863355.0069165-1.7908568-.197388-2.2787402-1.694025-.8879798-2.6713879.9762989-7.3171874 1.6812559-9.3788541.4692619-1.4540735.3745582-3.3263328.7007006-4.169089.2362271-.6272787 1.5546297-.8384997 3.0246645-.8225385 1.943021.0154293 4.1329101.4607493 4.2898627.6991046.284111.3894554.0207497.8730825.0031923 1.3162744-.0164933.5746064.8688262 4.3478554 1.2572176 6.2786395.5155497 2.3165152 2.0754998 7.868916-.7757187 7.8290128m-13.7288377-1.038548c-1.372671.8518009-2.8607952 1.3082938-4.280286 1.4386443-2.2994899.2074968-4.4803341-.4144615-5.8248068-1.6418847-3.2864297-2.9991264-3.3124998-9.947076-.209625-12.4897095 1.1603858-.9566134 2.8054628-1.571123 4.514385-1.7270116 2.141473-.1984521 4.3999956.347424 5.8833315 1.7541458 3.3939023 3.2449302 3.4167802 10.5355155-.0829987 12.6658157m-19.1072605-8.3786132c.3351871-.6198301-1.2205066-1.4450288-2.6426576-1.3998052-.1526963-.0021281-.2803866.0250061-.408077.0516082-1.3923565.2952839-2.0403849 1.8648107-1.2508331 4.2137806.6336633 1.9355725 2.3558865 5.0145053 5.2555208 5.8604537.5219342.147908 1.1790073.2069648 1.719031.1074727.7411359-.136203 1.2077376-.5671578.6177019-1.4147023-.569286-.8369037-2.0877367-1.4072538-2.5378451-1.3173385-.0345828.0063845-.0686336.012769-.0829987.0324546-.7533729.618234-.3500843.8400959-.7996607.9981127-.445852.1558886-1.7525496-1.0305673-2.3947255-2.2691634-.5496005-1.0747269-.1298185-1.9259957.7038929-2.1005058.1420555-.0292624.2873032-.0425635.4559608-.0271342 1.113034.1069406 2.4633591.5650297 3.7152563.4586211 1.2550895-.0915114 2.3228998-.4288267 2.783649-.0351149.370302.3075209-.0728899 1.1923084.9619338 3.377409.6405798 1.3822477 1.2949927 3.4769011.5538568 3.8573118-.2676177.1415234-.4948.210689-.7273028.2484641-.5820551.0936396-1.08856-.0712938-1.6211351.0212817-.1165174.0207497-.2298425.0569286-.3570008.1127931-.593228.2383553-1.8110744.8603136-3.2433342 1.1540013-.7257066.147908-1.5184507.2154774-2.3420533.0962998-3.7716529-.5474723-6.1669105-3.6162963-6.5457251-7.79443-.3282705-3.525317 1.3950168-7.0937294 5.6689182-7.9747927 2.882077-.5910997 5.6875398.1862151 6.8277079 1.8711953 1.026843 1.5083419 1.4269394 4.0940709-.8097694 4.4649049-.0532043.0085127-.1064086.0175574-.1596129.0271342-2.4314366.259637-4.1648327-1.1795393-3.3406981-2.6203118m-11.2825039-9.1788059c-.6294069-.1292865-1.7126465-.3027325-2.37131572-.122902-.48415913.1314146-.74486021.4602172-.3724301 1.1247389.82466662 1.4413045 2.89803822 2.8959101 3.50988772 3.5050994.6379195.6017406 1.0725987 1.3157423-.4761785 2.0286799-.2825148.1260942-.642708.2569768-1.0481247.3676418-1.3625622.3697698-3.21194365.5889716-3.93392601.2085608-.91724214-.495332-1.19124429-2.0792241-1.48918837-3.6561995-.30592473-1.5759114-.59269591-4.8894752-1.26466623-6.6281918-.67729074-1.7381845-1.28435181-2.4309045-1.64560901-2.957095-.36604559-.5400237-.10055613-1.40140129 1.27849934-1.92546365.89489633-.34902021 2.9358133-1.03482364 5.1193178-1.5934688 2.51177498-.65015655 5.19486788-1.11675827 6.36057418-.92681892 1.658378.26921376 1.6269875 2.51390321 1.8110743 3.46519607.1883433 1.0023691-1.1066494 1.5062138-2.5213518 1.9302521-.5389595.1181135-2.4665513.4266984-2.6506382-.1346069-.2830469-.7831673 2.1122107-1.7381845 1.175283-2.46176301-.2910275-.23675914-1.2226348-.17025377-2.2792723.09151139-2.01750703.49373592-4.43617453 1.72913982-3.7008911 2.63680512.80232085 1.0060933 2.21117073 1.6621024 3.1986426 1.4088499.0595888-.0148972.1383311-.0356469.1936636-.0665054.4985243-.1957918.6480284-.4362752 1.026311-.5309789.1590808-.0393712.3894554-.0462877.6953802-.0021282 1.0039651.1590809 3.402947 3.4694525 2.4665513 4.2786899-.2011122.1830228-.4203139.285175-.6512206.3410395-.7496486.1798306-1.5966611-.186215-2.4303724-.3809427m8.4323496-11.99544165c1.5003612-.2771944 3.1385216-.22931053 3.699827.08087054 1.3375561.77146236 1.1646422 4.17228125-.2394193 4.404252-.0196856.00319226-.0606529.00957677-.0803385.01330107-.7602895.06171699-.3495523-1.69296084-1.3668185-1.8520417-.0643772-.00478839-.1080047-.01383312-.1489721-.00691656-.7395397.13035054-.5990804 2.0276159-.0941716 3.3226086 1.3317037 3.2965384 4.6229217 6.9101745 6.110514 6.7010816.0760821-.0111729.1308825-.0356469.2053686-.0633131 1.4333238-.6512206.2771944-8.27380077-1.249237-10.53391946-.989068-1.46897074-1.3199987-2.20052987-.5038447-2.60222234.9927922-.49586408 3.105535-.80444902 4.2371904-.93213934 2.1404091-.24261162 1.5051497.79274407 1.422683 2.30427825-.0590567 1.57803956 1.4423686 6.96976339.7033609 10.40942139-.4846912 2.1856327-2.9911458 3.6710968-5.6316752 4.0844942-1.558886.2399514-3.1762968.1202417-4.5042761-.5027807-3.6338537-1.6849802-5.0889914-11.73367641-5.2964881-12.99142608-.173446-.93852386 1.1939045-1.55303353 2.7362972-1.83554837m14.3273861-1.87917589c.6863354-.13141463 3.080529-.38041075 5.7136098-.5293828 3.7280253-.22984257 7.9684081-.2239901 8.5153483-.15322838 1.1609178.12662623 1.4306636.72304644 1.3199987 2.75970707-.1074727 2.04091697.2899634 3.75941588-1.7089221 3.73653803-1.6514615-.01808946-2.6362731-1.94514923-2.0739037-2.41973159.0606529-.05001204.2245222-.07076172.3889235-.07342194.1026843-.00266021.2048365-.00319225.3075208-.00532043.246868-.00478838.4724542-.02394193.5118254-.1558886.1824907-.46340946-1.1417643-1.72701159-1.9361045-1.70519783-.1042804.00266021-.1867471.02128172-.2686817.07235785-1.2582817.72730279.3107131 10.23703946.5884395 11.69430526.1314147.6054649.1117291 1.4109781-.2793225 1.7339282-.4096732.3559367-1.4450288.5682219-2.4681475.6145096-1.0608938.0462878-2.0935893-.0899152-2.4027063-.4501084-.4937359-.5953561-.4570249-.8118976-.2665535-3.3928382.172914-2.5814727.9353316-9.66934958.1463118-10.13648334-.1936636-.10428043-.4256344-.14045936-.6959122-.12449807-1.4865282.0840628-3.7838899 1.82118321-3.6439626 2.39046923.1287544.53363913.4102052.95448515 1.1635781.89542838.8927681-.11704947.3575329-.70336086.3075208-1.07845118-.0154292-.19685591.3022005-.36976989.7347514-.39956429.6384516-.04522366 1.4631183.2660215 1.4295996 1.3881002-.0510761 1.56846278-1.4588619 2.80439867-3.3534671 2.96507567-3.7173845.0558645-3.1092593-3.81155609-3.2954744-5.10708081-.1697217-1.03854795-.3772184-2.18084428 1.2657304-2.51922363m31.9098113 2.20106191c.09896-.94863268 1.188052-1.44556085 1.9887767-1.56580257.408609-.0532043 2.4878331-.00798064 4.7468877.32401419 2.2798043.32880258 4.7314585.95448516 5.8657742 1.86959913 2.8725001 2.30321417 1.831824 6.37068298-.3245463 7.63534918-1.6812559 1.002369-1.9643028.6230224-1.6722111 1.5434568.3000722.9342675 2.251606 3.0901057 2.0143148 4.3893547-.2495282 1.310954-.7613536 1.6163467-2.6708559 1.2577497-2.3181114-.4282946-3.7067436-1.8690671-4.032354-2.9523066-.235695-.7517768-.1064086-.965126.1830228-.9204344.2117532.0329866.5352353.2335669.8347755.4479802.2607011.2085608.5123574.3490202.7033609.3814748.2676176.0446916.384135-.1697217.1468438-.8757428-.3458279-1.0444004-2.1074223-3.7540954-3.5423423-3.9477591-.7911479-.1085367-1.0651501.7528409-.8400959 1.595065.3069888 1.0172662 1.5413286 3.3524029 1.6025135 4.3116765.0904473 1.1768791-1.4083178 1.1673023-2.6878812 1.0007729-.9603377-.1298185-2.5899854-.3873273-2.9469862-1.3338318-.3883914-1.0348237.6086572-4.613877.7528408-6.2025574.1915355-1.9972894-.2138813-6.02591908-.1218378-6.95805843m32.6807416 3.34921072c-.3745583-.7608215-1.1449566-2.33566879-7.9152038-3.9477591-2.2478817-.53736344-4.3031638-.85658924-5.1166576-.96831827-1.7286077-.22877849-3.414652-.26070107-4.6777221.532043-.1766383-.16493333-.3532766-.32986666-.5458761-.48415913-1.7871325-1.39927311-4.9341669-2.06432686-7.2570666-2.37823224-2.2691634-.30858494-4.6830426-.39371182-5.5231385-.28198279l-.0537363.01064086c-.2458039.03724301-.4868194.09576774-.7331553.16493333-.952357-.65973332-2.065923-.7608215-2.5101789-.79806451-1.6323079-.14897204-3.8743371-.23941935-5.3034047.13833119-.2516563.06916559-.4926718.15429247-.7171939.26070107-1.6754034-.98427956-4.2547479-1.09600859-4.8059445-1.11196988-1.4290675-.03192258-2.5101789.17557419-3.3396339.50544085-.4336151-.20217634-.9422482-.35646881-1.5572899-.42031397-.3857312-.04256344-1.2471088-.06384516-2.3553544-.06384516-1.8887527 0-4.4845905.06384516-6.630852.18621505-2.4724038.12769032-5.1432597.36710967-6.1280713.54800429-.4224422.08512689-.9097936.2287785-1.3859721.46819785-.8991526-.25006021-1.7498894-.1596129-2.1244477-.12236989-1.6275195.17025376-3.848267.51076128-5.1810348 1.15985375-.235163.11172903-.4548967.24473978-.6581372.39371182-1.8355483-.64377203-4.3994636-.26070107-4.9400193-.16493333-1.6908326.28730323-2.8256804.80870537-3.5966107 1.4152344-.074486-.02128172-.1441836-.04256344-.2298426-.05852473-1.8733234-.32986667-5.1326188.28730322-7.5246842.86190967-2.17818406.51608171-4.3622206 1.1864559-5.45397285 1.58548815-2.11912729.7608215-2.86292341 2.1228516-3.11457975 2.8677118-.36391742 1.06940643-.22505419 2.22926023.39583999 3.18693763.06437721.1010881.13939527.2074967.21973377.3192258.31018107.4469161.65813719.9576774 1.07579095 2.090929.33678323.9204344.56715785 2.8251484.73315527 4.2137806.08565892.7288989.17131784 1.4152344.2622972 1.9472774l.02660215.1436516c.32135397 1.9472774.7225144 4.3627527 2.80439868 5.5332473.77625075.4256344 1.74988945.5639656 2.7080989.5639656 1.32212687 0 2.61711959-.271342 3.30771139-.4415957.2564447-.0691656.5134215-.1436517.7650778-.2234581-.4282946 1.3088258-.6155737 2.7453419-.5033127 4.2776258.3910516 5.5811311 3.8695488 9.6831827 8.857452 10.454645.4442559.0691656.9044731.1010882 1.3758632.1010882.6421759 0 1.3003131-.0638452 1.9690912-.1915355 1.4562017-.2766623 2.697458-.7980645 3.4359337-1.1066494.0803385-.0319226.1553566-.0638452.2250542-.0957678.0319226.0053205.0590568.0053205.0909793.0106409.3479562.0266021.8666981.0638451 1.4822719-.0266022.5623694-.0851268 1.0864318-.2553806 1.5737832-.5054408.4655376-.2287785.9954524-.6171699 1.3806516-1.2556215 1.4397083.681015 3.1257526 1.0587656 4.8862829 1.0587656.3532766 0 .7118736-.0159613 1.0651501-.0478839 1.9643028-.1649333 3.896151-.7927441 5.5875157-1.8142667.1819587-.1064086.3532765-.2340989.5240623-.3617892.9635299 1.1332516 2.3659953 1.7610623 3.9929828 1.7557419.2995402-.0053204.5884396-.0266021.829455-.0638451 1.3056336-.1702538 2.2207475-.5958882 2.857603-1.1066495 1.113566.7235785 2.4729359 1.1492129 3.9658486 1.2077376l.3479561.0159613h.0590568c.5458761 0 1.064618-.0957677 1.5413286-.2660215.5618374.2926237 1.225295.4735183 1.9909049.5267226l.6315351.0478839c1.3540494.0904473 4.6665492.4681978 6.8074902.7501806l.3160336.0425634c.7437961.0957678 1.1774111.1489721 1.5519694.1489721h.0425634c.7656099 0 1.632308-.1649333 2.3925974-.6969764 1.1289953.8459484 2.5633832 1.4950409 4.3185931 1.9313162.2250542.0638451.4607493.111729.7225144.1649333.8246667.1596129 1.6110262.2394193 2.3495019.2394193 4.0249054 0 6.7117225-2.2452214 7.6800408-4.7830666.6959123-1.7717032.7496486-3.9477591-.0266021-5.9216386.6155737-.457557 1.0007729-.9736387 1.2040133-1.3141463.5783307-.9257548.7975325-2.0004817.6421759-3.1071311.123434.0319226.2410155.0691656.3644495.1010882 1.0486567.2660215 2.2691634.5426838 3.4300812.5533247h.1181136c1.4663105 0 2.7240601-.6597333 3.4625358-1.830228 1.6860443-2.6708558-.2569767-6.5441289-.4814989-6.9750838-.4282946-.8246666-.9582094-1.5003612-1.5578219-2.0111225.0377751-.0957678.0696976-.1915355.0968318-.2873032.0053205-.0106409.0106409-.0266022.0159613-.0372431.1495041-.0106408.3048607-.0266021.4602172-.0425634 2.0121867-.2234581 3.9067918-1.4418365 4.8272262-3.0964903.7278344-1.3088258.7975324-2.7932258.1766383-4.07544941"></path>
<path d="m51.9427116 23.0389342c-.0186215 0-.037243-.0005773-.037243-.0005773-.7395397-.0095315-1.386504 1.5020027-1.2268911 2.916173.1463118 1.3141462 1.9595143 2.5750881 3.4173122 2.6713879.9555492.0441596-1.1449566-5.5140937-2.1531781-5.5869836"></path>
<path d="m40.0461768 32.8274614c2.5490181-.4107372 1.9036499-3.6976989.2936878-6.285024-1.1843278-1.9031178-3.0938301-4.1031156-4.8580847-3.9200929-.4245703.0430955-.8374357.2037725-1.1970968.4916078-1.2056094.9975806-.3080529 3.8551836 1.6493333 7.0910692 0 0 1.8578942 2.9858253 4.1121604 2.6224399"></path>
<path d="m75.5374356 12.077731c.5570491.0925755 1.0672783-.0196856 1.4812078-.3809428 2.016975-1.695621-3.2880258-5.63593154-5.7598976-5.92589498-.4144615-.05426838-.7150658-.01010881-.9039411.14844-1.0832395 1.03375956 2.6251002 5.71360988 5.1826309 6.15839778"></path>
</g></svg>