<?xml version="1.0" encoding="UTF-8"?><svg xmlns="http://www.w3.org/2000/svg" xmlns:xlink="http://www.w3.org/1999/xlink" viewBox="0 0 234.02 234.02"><defs><style>.e{fill:url(#d);}.f{fill:#1e1e1e;}</style><linearGradient id="d" x1="309.83" y1="371.15" x2="309.83" y2="137.02" gradientTransform="translate(77.59 -281.74) rotate(45)" gradientUnits="userSpaceOnUse"><stop offset="0" stop-color="#00bc00"/><stop offset=".25" stop-color="#00baf3"/><stop offset=".5" stop-color="#ff002c"/><stop offset=".75" stop-color="#ff6700"/><stop offset="1" stop-color="#ffcb00"/></linearGradient></defs><g id="a"/><g id="b"><g id="c"><g><g><path class="f" d="M181.46,151.5h-13.3c-.83-1.8-8.14-14.37-8.14-44.43-8.33-2.19-23.14-5.07-43.02-5.07s-34.69,2.87-43.02,5.07c0,30.06-7.36,42.63-8.14,44.43h-13.35c12.28-24.46-1.32-56.9-1.32-56.9l7.75-3.17c.88-.39,22.22-8.92,58.07-8.92s57.15,8.53,58.02,8.92l7.79,3.17s-13.64,32.45-1.36,56.9Z"/><circle class="f" cx="136.25" cy="127.03" r="11.85"/></g><path class="e" d="M34.23,199.78c-45.64-45.64-45.64-119.91,0-165.55,45.64-45.64,119.91-45.64,165.55,0,45.64,45.64,45.64,119.91,0,165.55-45.64,45.64-119.91,45.64-165.55,0ZM186.01,48.01C144.16,6.17,82.97-.72,41.12,41.12-.72,82.96,6.17,144.16,48.01,186c41.84,41.84,103.04,48.73,144.88,6.89,41.84-41.84,34.95-103.04-6.89-144.88Z"/></g></g></g></svg>