<?xml version="1.0" encoding="UTF-8"?><svg xmlns="http://www.w3.org/2000/svg" xmlns:xlink="http://www.w3.org/1999/xlink" viewBox="0 0 234.02 234.02"><defs><style>.e{fill:url(#d);}.f{fill:#1e1e1e;}</style><linearGradient id="d" x1="233.4" y1="186.62" x2="233.4" y2="-47.5" gradientTransform="translate(1.16 -97.22) rotate(45)" gradientUnits="userSpaceOnUse"><stop offset="0" stop-color="#00bc00"/><stop offset=".25" stop-color="#00baf3"/><stop offset=".5" stop-color="#ff002c"/><stop offset=".75" stop-color="#ff6700"/><stop offset="1" stop-color="#ffcb00"/></linearGradient></defs><g id="a"/><g id="b"><g id="c"><g><g><path class="f" d="M117.39,158.65h-.77c-42.75-.27-64.22-32.23-65.12-33.18l10.63-10.03c.71,.74,18.5,18.73,54.87,18.85,36.37-.13,54.16-18.12,54.9-18.88l10.6,10.06c-.9,.95-22.36,32.91-65.11,33.18h0Z"/><path class="f" d="M104.9,89.78c0,7.96-4.47,13.72-9.99,13.72s-9.99-5.76-9.99-13.72,4.47-14.42,9.99-14.42,9.99,6.45,9.99,14.42Z"/><path class="f" d="M149.09,89.78c0,7.96-4.47,13.72-9.99,13.72s-9.99-5.76-9.99-13.72,4.47-14.42,9.99-14.42,9.99,6.45,9.99,14.42Z"/></g><path class="e" d="M34.23,199.78c-45.64-45.64-45.64-119.91,0-165.55,45.64-45.64,119.91-45.64,165.55,0,45.64,45.64,45.64,119.91,0,165.55-45.64,45.64-119.91,45.64-165.55,0ZM186.01,48.01C144.16,6.17,82.97-.72,41.12,41.12-.72,82.96,6.17,144.16,48.01,186c41.84,41.84,103.04,48.73,144.88,6.89,41.84-41.84,34.95-103.04-6.89-144.88Z"/></g></g></g></svg>