<?xml version="1.0" encoding="UTF-8"?><svg xmlns="http://www.w3.org/2000/svg" xmlns:xlink="http://www.w3.org/1999/xlink" viewBox="0 0 234.02 234.02"><defs><style>.e{fill:url(#d);}.f{fill:#1e1e1e;}</style><linearGradient id="d" x1="10.62" y1="-351.24" x2="10.62" y2="-585.36" gradientTransform="translate(-221.64 440.64) rotate(45)" gradientUnits="userSpaceOnUse"><stop offset="0" stop-color="#00bc00"/><stop offset=".25" stop-color="#00baf3"/><stop offset=".5" stop-color="#ff002c"/><stop offset=".75" stop-color="#ff6700"/><stop offset="1" stop-color="#ffcb00"/></linearGradient></defs><g id="a"/><g id="b"><g id="c"><g><path class="e" d="M199.79,34.24c-45.65-45.65-119.95-45.65-165.55,0-45.65,45.65-45.65,119.9,0,165.55,45.6,45.65,119.9,45.65,165.55,0,45.65-45.65,45.65-119.9,0-165.55Zm-6.92,158.63c-41.85,41.85-103.04,34.98-144.89-6.87C6.18,144.15-.74,82.96,41.11,41.11,82.96-.74,144.15,6.18,186,48.03c41.85,41.8,48.72,103.04,6.87,144.84Z"/><g><path class="f" d="M162.28,112.25c3.14-8.45,4.74-24.48-5.69-38.82l.44-1.49,4.48-24.34-37.19-10.97-9.44,22.87-.44,1.49c-16.55,6.39-23.95,20.7-25.85,29.52-1.63,6.26-.15,12.57,3.42,17.45l-5.02,17.04c-5.89,2.25-10.7,7.03-12.62,13.53l-6.86,23.26c-3.26,11.06,3.12,22.7,14.17,25.96l33.57,9.9c11.11,3.28,22.73-3.05,25.99-14.11l6.86-23.26c1.92-6.5,.47-13.12-3.2-18.19l5.02-17.04c5.6-2.17,10.27-6.67,12.35-12.8Zm-30.9-62.1l16.86,4.97-.66,8.64-20.38-6.01,4.18-7.61Zm-3.87,129.34c-1.02,3.47-4.68,5.46-8.21,4.43l-33.57-9.9c-3.52-1.04-5.51-4.7-4.49-8.17l6.86-23.26c1.04-3.52,4.7-5.51,8.22-4.47l33.57,9.9c3.52,1.04,5.51,4.7,4.48,8.22l-6.86,23.26Zm-15.76-59.31l-.19,1.72c-.02,.97-.12,1.69-.17,2.21l.45,.13,5.84-8.47,6.5,1.92,.26,10.26,.45,.13c.18-.43,.4-.8,.66-1.32,.19-.27,.25-.47,.35-.65l.88-1.52c1.21-2.28,1.92-4.12,2.11-5.52l10.36,3.06c-.86,.72-1.73,1.65-2.67,2.83-.94,1.18-1.75,2.29-2.4,3.39l-1.47,2.42c-.65,1.1-1.26,2.27-1.76,3.58-.27,.57-.45,1.16-.6,1.66-.23,.58-.34,1.14-.43,1.65l-11.21-3.31v-1.78l-.03-7.61-.45-.13-4.1,6.39-.98,1.49-11.21-3.31c.2-.48,.41-1.01,.58-1.61,.15-.5,.27-1.11,.4-1.72,.25-1.38,.36-2.7,.42-3.97l.13-2.82c0-1.29-.06-2.71-.21-4.21-.17-1.45-.42-2.77-.72-3.77l10.36,3.06c-.59,1.28-1,3.21-1.17,5.8Zm37-12.67c-1.02,3.47-4.68,5.46-8.21,4.43l-33.57-9.9c-3.52-1.04-5.51-4.7-4.49-8.17,0,0,3.47-17.79,23.42-21.28l2.66-9.03,14.73,4.34-2.66,9.03c14.86,13.76,8.12,30.59,8.12,30.59Z"/><path class="f" d="M81.83,149.39s1.82,14.26,16.92,12.6c15.09-1.66,18.57-7.79,24.21,1.16,5.64,8.96,18.91,2.99,18.91,2.99l-16.92,24.54-51.58-16.25,8.46-25.04Z"/></g></g></g></g></svg>