<?xml version="1.0" encoding="UTF-8"?><svg xmlns="http://www.w3.org/2000/svg" xmlns:xlink="http://www.w3.org/1999/xlink" viewBox="0 0 234.02 234.02"><defs><style>.e{fill:url(#d);}.f{fill:#1e1e1e;}</style><linearGradient id="d" x1="159.14" y1="7.35" x2="159.14" y2="-226.78" gradientTransform="translate(-73.1 82.06) rotate(45)" gradientUnits="userSpaceOnUse"><stop offset="0" stop-color="#00bc00"/><stop offset=".25" stop-color="#00baf3"/><stop offset=".5" stop-color="#ff002c"/><stop offset=".75" stop-color="#ff6700"/><stop offset="1" stop-color="#ffcb00"/></linearGradient></defs><g id="a"/><g id="b"><g id="c"><g><path class="e" d="M34.23,199.78c-45.64-45.64-45.64-119.91,0-165.55,45.64-45.64,119.91-45.64,165.55,0,45.64,45.64,45.64,119.91,0,165.55-45.64,45.64-119.91,45.64-165.55,0ZM186.01,48.01C144.16,6.17,82.97-.72,41.12,41.12-.72,82.96,6.17,144.16,48.01,186c41.84,41.84,103.04,48.73,144.88,6.89,41.84-41.84,34.95-103.04-6.89-144.88Z"/><g><path class="f" d="M159.39,114.67s19.49-21.42,13.05-53.1c-31.67-6.44-53.1,13.05-53.1,13.05,10.22-.83,16.45,6.09,16.45,6.09-53.45,53.45-83.35,63.11-83.35,63.11,0,0,13.92,3.39,24.14,13.61,10.22,10.22,13.61,24.14,13.61,24.14,0,0,9.66-29.91,63.11-83.35,0,0,6.91,6.24,6.09,16.45Z"/><path class="f" d="M167.75,137.66l-4.55-4.55s-3.88,5.59-9.84,12.07c-5.96-6.48-9.84-12.07-9.84-12.07l-4.55,4.55-4.55,4.55s5.59,3.88,12.07,9.84c-6.48,5.96-12.07,9.84-12.07,9.84l4.55,4.55,4.55,4.55s3.88-5.59,9.84-12.07c5.96,6.48,9.84,12.07,9.84,12.07l4.55-4.55,4.55-4.55s-5.59-3.88-12.07-9.84c6.48-5.96,12.07-9.84,12.07-9.84l-4.55-4.55Z"/><path class="f" d="M80.46,100.52c10.35,0,18.74-8.39,18.74-18.74s-8.39-18.74-18.74-18.74-18.74,8.39-18.74,18.74,8.39,18.74,18.74,18.74Zm0-27.74c4.96,0,9,4.04,9,9s-4.04,9-9,9-9-4.04-9-9,4.04-9,9-9Z"/></g></g></g></g></svg>