<?xml version="1.0" encoding="UTF-8"?><svg xmlns="http://www.w3.org/2000/svg" xmlns:xlink="http://www.w3.org/1999/xlink" viewBox="0 0 234.02 234.02"><defs><style>.e{fill:url(#d);}.f{fill:#1e1e1e;}</style><linearGradient id="d" x1="386.27" y1="555.67" x2="386.27" y2="321.54" gradientTransform="translate(154.02 -466.27) rotate(45)" gradientUnits="userSpaceOnUse"><stop offset="0" stop-color="#00bc00"/><stop offset=".25" stop-color="#00baf3"/><stop offset=".5" stop-color="#ff002c"/><stop offset=".75" stop-color="#ff6700"/><stop offset="1" stop-color="#ffcb00"/></linearGradient></defs><g id="a"/><g id="b"><g id="c"><g><path class="e" d="M34.23,199.78c-45.64-45.64-45.64-119.91,0-165.55,45.64-45.64,119.91-45.64,165.55,0,45.64,45.64,45.64,119.91,0,165.55-45.64,45.64-119.91,45.64-165.55,0ZM186.01,48.01C144.16,6.17,82.97-.72,41.12,41.12-.72,82.96,6.17,144.16,48.01,186c41.84,41.84,103.04,48.73,144.88,6.89,41.84-41.84,34.95-103.04-6.89-144.88Z"/><g><path class="f" d="M169.8,117.01h-19.39c0,15.69-17.51,28.4-33.13,28.62,0-8.7,3.64-15.69,3.64-15.69-24.61,12.93-30.7,30.26-30.7,30.26,0,0,8.21,18.43,30.7,30.26,0,0-3.64-6.36-3.64-15.69,31.68-.18,52.51-26,52.51-57.75Z"/><path class="f" d="M116.74,88.39c0,8.7-3.64,15.69-3.64,15.69,24.61-12.93,30.7-30.26,30.7-30.26,0,0-8.21-18.43-30.7-30.26,0,0,3.64,6.36,3.64,15.69-31.68,.18-52.51,26-52.51,57.75h19.39c0-15.69,17.51-28.4,33.13-28.62Z"/></g></g></g></g></svg>