<?xml version="1.0" encoding="UTF-8"?><svg xmlns="http://www.w3.org/2000/svg" xmlns:xlink="http://www.w3.org/1999/xlink" viewBox="0 0 234.02 234.02"><defs><style>.e{fill:url(#d);}.f{fill:#1e1e1e;}</style><linearGradient id="d" x1="84.89" y1="-171.95" x2="84.89" y2="-406.07" gradientTransform="translate(-147.37 261.35) rotate(45)" gradientUnits="userSpaceOnUse"><stop offset="0" stop-color="#00bc00"/><stop offset=".25" stop-color="#00baf3"/><stop offset=".5" stop-color="#ff002c"/><stop offset=".75" stop-color="#ff6700"/><stop offset="1" stop-color="#ffcb00"/></linearGradient></defs><g id="a"/><g id="b"><g id="c"><g><path class="e" d="M199.79,34.24c-45.65-45.65-119.95-45.65-165.55,0-45.65,45.65-45.65,119.9,0,165.55,45.6,45.65,119.9,45.65,165.55,0,45.65-45.65,45.65-119.9,0-165.55Zm-6.92,158.63c-41.85,41.85-103.04,34.98-144.89-6.87C6.18,144.15-.74,82.96,41.11,41.11,82.96-.74,144.15,6.18,186,48.03c41.85,41.8,48.72,103.04,6.87,144.84Z"/><g><path class="f" d="M105.51,127.49s31.3-2.69,56.53-2.69c4.91,0,9.66,.11,14.09,.32l.03,.03c.26,12.98-1.77,29.69-1.77,29.69h13.93s-2.03-16.33-1.83-29.05l.04-.04c12.93,1,21.59,2.38,21.59,2.38l-20.37-19-3.96-3.69-28.08-26.23s-11.88,2.59-37.21,2.59-41.75-2.59-41.75-2.59l-28.08,26.23-2.38,2.16-20.37,19.05s11.14-2.38,21.84-2.38v3.23c.01,11.98-1.78,27.34-1.78,27.34h13.93s-1.85-15.36-1.85-27.34v-.21c.02-10.48,4.57-20.44,12.23-27.59l6.46-6.03,6.23,5.81c7.67,7.16,12.21,17.12,12.24,27.61,0,.14,0,.27,0,.41,0,11.98-1.85,27.34-1.85,27.34h13.93s-1.79-15.36-1.79-27.34h0Z"/><path class="f" d="M83.51,143.06c0,7.31,.98,11.77,.98,11.77h-15.56s.98-4.46,.98-11.77-.98-11.73-.98-11.73h15.56s-.98,4.41-.98,11.73Z"/></g></g></g></g></svg>