<svg height="65" viewBox="0 0 50 65" width="50" xmlns="http://www.w3.org/2000/svg"><g fill="#fff"><path d="m25.3643243 0-1.0606652 3.04992035-3.2266979.06705354 2.5724178 1.94861667-.9346857 3.09055886 2.649631-1.84295653 2.647599 1.84295653-.9346857-3.09055886 2.5744497-1.94861667-3.2287298-.06705354z"></path><path d="m46.3112422 4.88921942-.4104489 3.20231477 2.8568874 1.49752917-3.1718359.59738614-.5425241 3.1819955-1.5483274-2.8304724-3.194187.465311 2.2147989-2.34687409-1.4304756-2.89346208 2.9178451 1.38170942z"></path><path d="m9.76746643 6.01287428-1.43250756 2.89346208 2.21479893 2.34687404-3.19418707-.4673428-1.55035925 2.8304723-.54049221-3.1819955-3.17183589-.59941804 2.85891934-1.49752918-.40841704-3.20028284 2.30623557 2.25543743z"></path><path d="m8.74053123 49.6216555c-.20928834.0223511-.36168276.2072564-.34136351.4185766.02235119.2113203.20928834.3637147.42060861.3413635.01422347 0 1.33700707-.1300432 2.63540747.1625541 1.3878052.3108846 3.3018792.9814201 4.2182776 1.3593582l.1503625.0629897c3.5274229 1.4568907 4.3097143 1.5239442 4.6490458 1.1277187.6116096-.7132059-.2946292-1.5503592-.5933223-1.8246692-.1564582-.1442667-.3962254-.1341071-.5425241.0203193-.0650216.0751812-.0995643.1666179-.0995643.2600865 0 .1036282.0426704.2052244.1239474.2804057.4592152.4246724.5445561.6217692.546588.709142-.2804057.0060958-1.1439741-.1869371-3.7915732-1.2801131l-.1523944-.0629897c-.9407816-.3860659-2.9097175-1.0769206-4.3422251-1.3979648-1.4223479-.3210443-2.82234463-.1828733-2.88127047-.1767775"></path><path d="m24.6177948 47.3448828c0 .0081277-.0853409.7944829-.4449917 1.5666146-.382002.8188661-1.6621152 3.0458565-1.6743067 3.0661758-.081277.1422348-.0629897.3190123.0406385.4409279.107692.1259793.2824376.1666179.4328001.1056601.0142235-.0060958 1.532072-.6116096 2.0359895-.7436848l2.021766-.5079814c.2031926-.0528301.2783738-.2519588.2235118-.4571833-.0487662-.2052244-.1970968-.3210442-.4023213-.2844695l-2.0359894.5079814c-.2519588.0670535-.7010144.2296076-1.1236549.3880978.4084171-.7274294.9407816-1.6925941 1.174453-2.1924478.4145128-.8920153.5079814-1.773871.5120453-1.8124776 0-.0142235 0-.0264151 0-.0386066 0-.1930329-.1442667-.3596508-.3433955-.3799701-.2092883-.0223512-.3962255.1320752-.4165447.3413635"></path><path d="m17.3934865 55.2799587c-.056894.2031926.0650216.4124809.2682141.4693748.0081277.002032.8635684.2397673 1.4528269.87576.3230761.3494912.6298969 1.0281543.7233655 1.4548587.0792451.3616828.1320751 1.1175591.1320751 1.1256868.0142235.2113203.1970968.3698105.4063852.355587.2113202-.0121916.3718424-.1970968.3576189-.4063851-.0040639-.0325109-.0568939-.8229299-.1503625-1.2394747-.1178517-.5303326-.4754706-1.3431028-.9082708-1.8104457-.7457167-.8005787-1.7718391-1.0850483-1.8145095-1.0952079-.2052245-.054862-.4124809.0670535-.4673429.2702461"></path><path d="m37.7233086 49.7413359c-.4043532.4348321-.2763419 1.4040606.4531194 3.4563054.2641504.739621.1137879 1.284177.0142235 1.339039-.136139.0711174-.5790988-.0975324-.9123346-.4795344-.0040638-.0040639-.0081277-.0081277-.0142235-.0142235-1.0809844-1.1155272-1.6580513-1.4609545-2.1314899-1.2719854-.5404922.2153841-.9407816 1.6560193-1.1338145 2.4931727-.3149485 1.3776456-.5506519 1.7433922-.6725674 1.8368607-.1239475-.2621184-.2153841-1.0403459-.2153841-1.8510842 0-.1584902.0040638-.3169804.0121915-.4734387 0-.0020319 0-.0304788 0-.0792451 0-.4307682-.0386066-2.4484703-.7030462-2.6882375-.6888228-.2519588-1.7799669.8757599-1.7921584.8879514-.2275757.245863-1.3979648 1.5605189-2.3082675 3.2612407-.847313 1.5808381-1.5666147 3.5680613-1.5991255 3.6513703-.0711174.1991287.0325108.4185767.2296076.4896941.1991287.0731493.4185767-.0304789.4896941-.2296076.0060958-.0182874.7355571-2.0197341 1.5544231-3.551806.8838876-1.6519555 2.0664683-2.9605156 2.1965116-3.1047823.2580545-.2804058.6989824-.5790988.9184304-.6583439.1259793.3190123.2519587 1.2252511.2519587 1.828733 0 .054862 0 .1076921-.0040638.1584902-.0040639.0975324-.0101597.2966611-.0101597.546588 0 .7619721.0650217 2.0116064.4815664 2.4261192.1300433.1280113.2946292.1950648.465311.1849052.8290256-.0406385 1.1703891-1.2394746 1.4528268-2.4647258.2296076-1.0058031.5283007-1.7393283.6786632-1.9343931.1158197.0345427.4510874.2092883 1.2923046 1.0748886-.0040638-.0060958-.0121915-.0081277-.0142234-.0142235.4815663.5547157 1.2780812.9550051 1.8490523.6481843.3799701-.2031926.5364283-.6786632.5364283-1.2049319 0-.3494912-.0690854-.7253974-.1869371-1.0626971-.5404922-1.5056569-.6441204-2.1802562-.6441204-2.4769173 0-.1300433.0203192-.1849052.0325108-.2072564.2397672-.2478949.7579082-.2397672 1.7251048.0284469.9875159.27431 2.1904158.6908547 2.1985435.6969505.1991287.0670536.4165448-.0365746.4876622-.2357034.0690855-.1991287-.0365747-.4185766-.2357034-.4876621-.0487662-.0162554-1.2354108-.4287363-2.2473097-.711174-.9550051-.2641503-1.9161059-.4246724-2.4952047.193033"></path><path d="m32.7322897 49.4735281c-.1056601.4978217-.0304788.9326538.2255438 1.2923047.3372996.4754706.9407815.709142 1.391869.7700998.5039176.0650216 1.5158165-.1666179 1.8287331-.6095777.2255437-.3230762.4246724-.9671966.4470236-1.038314.0589259-.2011606-.054862-.4145128-.2560226-.4775025-.2011606-.0609578-.4124809.05283-.4754706.2539907-.0711174.2275756-.2235118.6522481-.3393316.8208979-.109724.1280113-.764004.3372997-1.1033356.2905654-.2275757-.028447-.6603758-.1584902-.8696642-.4531194-.1280113-.1808414-.1605221-.4063851-.1015962-.6928867.1788094-.8534087 1.1277187-.8290256 1.2354107-.8229298.2113203.0101596.3921617-.1503625.4043532-.3596509.0121916-.2113202-.1483305-.3901297-.3576189-.4023212-.5892584-.0365747-1.775903.2153841-2.0298937 1.4284437"></path><path d="m15.0073962 36.1593355c-.0081277.0121915-.6420885 1.1439741-.8818557 1.4914334-.1991287.2885334-1.0261224 1.912042-1.0261224 2.2716928 0 .3088527.1422347.546588 1.9872232.8290257.2072564.0325108.4023213-.1117559.4348321-.3210443.0020319-.0203192.0040638-.0386066.0040638-.0589258 0-.1828733-.134107-.3474593-.3251081-.3759063-.4449917-.0690854-.9692285-.1727136-1.2577619-.2560226.1788094-.4531194.6238012-1.3837413.8107383-1.6539874.2600865-.3759063.8940473-1.503625.9204623-1.5523912.0325108-.0589259.0487662-.1219155.0487662-.1849052 0-.1341071-.0711174-.2641504-.1970968-.3332358-.1828733-.1036282-.4145128-.0386066-.518141.1442667"></path><path d="m17.0750837 34.1855229c-.9346858.902175-.9346858 1.1724211-.9346858 1.2882409 0 .4592152.4957899.7579082.9631328.8026106l.2072564.0121915c.6339608.0304789.8798238.0934686.9712604.1483306.002032.081277.0101597.2722781.0101597.2722781.0020319.0914366.0060957.2113202.0060957.3210442 0 .0609578 0 .1158198-.0060957.164586-.1137879-.0264151-.27431-.0772132-.384034-.109724-.3962255-.1239475-.709142-.2214799-.9651646-.0934686-.3108847.1544264-.3494913.520173-.4063852 1.0748887-.0365746.3372996-.081277.7579082-.1889691 1.2028999-.0487662.1991287-.0690854.4206086-.0690854.6441204 0 .5790988.1442667 1.1683573.3332358 1.422348 0 0 .0650216.0833089.0772131.1036282-.1767775.0060958-.5628433-.0162554-1.5401996-.1767775-.2072564-.0345428-.4043532.107692-.4388959.3149484-.0345427.2092884.1056601.4043532.3149485.438896 1.53004.2519587 1.8226372.2072564 2.0725641.1219155l.0243831-.0081277h-.0020319c.2865015-.0487662.3941935-.2255438.4348321-.3251081.0284469-.0650216.0365746-.1300432.0365746-.191001 0-.2539907-.1788094-.4896941-.3291719-.6888228l-.0386066-.0507981c-.0629897-.0873728-.1849052-.5079814-.1849052-.9590689 0-.1544264.0162554-.3149485.05283-.465311.1219156-.4957898.1666179-.9448454.2052245-1.3044962.0142235-.1442668.0325108-.3108847.0528301-.4267044.1056601.0243831.2377353.0650216.3312038.0955005.3149485.0975324.6116097.191001.8534088.1462986.4551513-.081277.5303326-.5303326.5303326-.9611008 0-.1117559-.0060958-.2214799-.0101596-.3251081l-.0081277-.2986931c0-.7721317-1.1073995-.8229298-1.7007218-.8513768l-.164586-.0081277c-.0894047-.0081277-.1666179-.0386066-.2235118-.0670535.1198836-.164586.3799701-.4551514.6461524-.7132059.0772131-.0751813.1178517-.1747456.1178517-.27431 0-.0955005-.0365747-.191001-.1076921-.2661822-.1462986-.1523945-.3880978-.1564583-.5384603-.0101597"></path><path d="m14.0154101 32.1924071c-.2275756.355587-.0995643.8127702.0487662 1.1338145.1970968.4267044.9042069.9387496 1.1155272 1.0830163.1727137.1198837.410449.0772132.5303326-.0975324.0467343-.0650216.0690855-.1422348.0690855-.2153841 0-.1219155-.056894-.2417991-.164586-.3169804-.3535551-.2438311-.7822914-.6116096-.8574726-.7721317-.0792451-.1747456-.1015963-.300725-.1015963-.3657466 0-.0121916.0020319-.0223512.0040638-.0304789.0162554-.0081277.056894-.0203193.1462987-.0203193.6075457 0 1.6600832.1869372 3.2165382 1.0769206 1.5564551.8879515 5.4597842 3.496944 7.6644235 5.2850385 2.2757566 1.8449885 4.3036184 3.6046361 5.2891023 4.59012.6644397.6664716 1.666179 1.666179 1.666179 1.9790955 0 .0040639 0 .0101597-.0020319.0162554-.0121915.1280114-.0162554.1544264-.4612471.2966612l-.2702461.0894047c-.766036.2682142-1.1581976.6461524-1.1581976 1.1216229 0 .1503625.0487662.3332358.1015963.5425242.0406385.1584902.1178517.4592152.1178517.6238012 0 .0365746-.0060958.0650216-.0121916.0853408-.1219155.1727137-.3982574.1808414-.7782275.1686499-.2133522-.0040639-.4124809-.0121916-.5912904.0447023-.1422348.0426705-.2865015.1259794-.4429597.2113203-.2275757.1280113-.575035.3230762-.6969505.2235118-.138171-.1117559-.2072564-.300725-.2072564-.5770669 0-.1788094.0304788-.3941935.0853408-.6522481l.1483306-.5892584c.0934686-.3535551.1605221-.6136416.1605221-.820898 0-.1036282-.0162554-.1950648-.0589258-.2763419-.1015963-.2052244-.3230762-.2925972-.8595046-.489694-.243831-.0873728-.6908547-.2519588-.790419-.3433955-.0772132-.1036282-.1239475-.3190123-.1239475-.5811307 0-.0772132.0040639-.1564583.0101596-.2377353.0223512-.2316395.1442668-.7721317.1869372-.9590689.0060958-.0304789.0142235-.0589258.0142235-.0914366 0-.1706818-.1178517-.3271401-.2946292-.3698105-.2052245-.0507981-.4084171.0772132-.4592152.2824377-.0203193.0751812-.1747456.7396209-.2072564 1.0687928-.0081277.0975325-.0162554.2031926-.0162554.3129166 0 .3637147.0670535.7700998.2946292 1.0566013.1767775.2235118.5404922.3677785 1.1216229.5811307.1239475.0447024.2925973.1076921.4063851.1544264-.0243831.1381709-.0792451.3494912-.1259793.518141l-.1523945.6238012c-.0386066.1727137-.1036282.4693748-.1036282.7985467 0 .4124809.1036282.8696642.4896941 1.1846127.5262687.4267044 1.1683572.0650216 1.5544231-.1483306.1117559-.0629897.2255437-.1300432.2905654-.1483306.0568939-.0182873.217416-.0142234.3474592-.0101596.4267044.0101596 1.0687929.028447 1.4304757-.5059495.2478949-.3616827.1178517-.873728.0020319-1.3268474-.0304789-.1239475-.0751813-.2986931-.0751813-.3535551 0-.0447023.1198837-.2133521.6461524-.3982574l.2438311-.0833089c.4307682-.136139.9184303-.2925973.9936116-.9387497.0731493-.6319288-.5953542-1.3349751-1.8835951-2.621184-1.0017393-1.0058032-3.0519522-2.7837381-5.3500601-4.644982-2.2310543-1.8084138-6.1892454-4.4560128-7.7660197-5.3561559-1.7027537-.9712604-2.8934621-1.1764849-3.5944764-1.1764849-.4592152 0-.682727.1991287-.7904191.3657466"></path><path d="m24.8988101 43.4169674c-.0467343-.2824377-.0995644-.60145-.1117559-.8148022l.0040638-.4998537c.0040639-.1259794.0081277-.2417991.0081277-.3474593 0-.3596508-.0447023-.6217692-.2641503-.7700998 0 0-.1889691-.1178517-.3901297-.2519587-.217416-.1462987-.3312039-.3433955-.1889691-.6786632.0386066-.1239475.2357034-.6075458.3494912-.8838876.0223512-.0467343.0325108-.0995644.0325108-.1483306 0-.1178517-.0568939-.2357034-.1564582-.3088527l-1.9526806-1.4223479-.9854839-.7335252s.2174161 3.1616763.2377353 3.4176989c-.1808414.2417991-.5811307.7822914-.7030462 1.0017393-.1666179.300725-.4043532.4775025-.7274294.5425242l-1.2252512.2235118c-.1727136.026415-.3657466.2316395-.3291719.4409278.0386066.2072565.2499268.3210443.4531194.3129166l1.2516662-.2296076c.5404922-.1076921.9692285-.4246725 1.2455704-.9204623.0914366-.1666179.4957898-.7152378.7294613-1.0240905.0507981-.0670536.0792451-.1483306.0792451-.2316395 0-.0081277 0-.0182874-.0020319-.0264151 0 0-.0812771-1.1073994-.138171-1.9100101.5669073.4124809 1.1094314.8066745 1.3715498.9976755-.0995644.2417992-.2255437.5567476-.2661823.6949186-.0386065.1381709-.1137878.353555-.1239474.5750349-.0081277.247895.136139.5912904.4246724.8066745 0 0 .2621184.1706818.3941936.2600865.0955005.0406385.1198836.1849052.1198836.2621184 0 .107692-.0060958.2296076-.0081277.3251081l-.0040638.5709711c.0142234.2539907.0731493.5933223.1219155.8940473.0304789.1808413.0650216.4104489.0751812.518141-.05283.081277-.1747456.245863-.2783738.3880978-.3169804.4287363-.7538444 1.0159628-1.0078351 1.5645827l-.2946292.6624078c-.1564583.3616827-.3515231.8127702-.4571832.8879514-.1442668.083309-.8412172.2092884-1.2557301.2885335l-.7457167.1462986c-.4063851.0914367-.9265581.3047889-1.3451347.4775025-.1869372.0772132-.4124809.1706818-.493758.193033-.107692-.0040639-.4388959-.1137879-.6603758-.1849052-.3047888-.0975325-.6502162-.2092884-.9489092-.2641504-.2621184-.0487662-.3149485-.0568939-.3149485-.2113202 0-.0365747.0020319-.0853409.0081277-.1462987.0020319-.0182873.0020319-.0365746.0020319-.054862 0-.4145128-.3332358-.8290256-1.0444098-1.3044962-.3190123-.2113203-.8371533-.7030463-.873728-1.1236549 0-.0121915 0-.026415 0-.0426704 0-.3454274.3413635-.7335252.6177054-1.0464417l.2316395-.2722781c.1442668-.1828733.1970968-.3698104.1970968-.5465879 0-.0304789-.0081277-.056894-.0101596-.0853409.3616828.0223512.7274294.0447023.7274294.0447023.2113202.0121916.3941935-.1462986.4063851-.3576189.0121915-.2092883-.1483306-.3921616-.3596508-.4043532l-1.3512306-.0853408c-.1564582-.0101597-.300725.0792451-.3677785.2214799-.0243831.0507981-.0365747.1056601-.0365747.1605221 0 .0975324.0386066.1930329.1076921.2661822.0142235.0162554.1158197.1239475.1158197.2275757 0 .0304789-.0081277.0589258-.0304788.0853409l-.2031926.2377353c-.3454274.3921616-.8107383.9204623-.8107383 1.5544231 0 .0365746.0020319.0731493.0060958.109724.0792451.9163984 1.0952079 1.6174127 1.2089957 1.6946259.6806951.4531194.7030463.6664716.7050782.6705355-.0060958.054862-.0081277.1117559-.0081277.1666179 0 .4470236.1584902.8513768.9387496.9936116.2499269.0467343.5689392.1483306.8493449.2397672.5303326.1706818.8168341.2580546 1.0484736.2092884.1259794-.028447.3129166-.1056602.6339608-.2377353.3921617-.1625541.8818557-.3616828 1.2252512-.438896l.7111739-.1402028c.7863553-.1462987 1.2801132-.2438311 1.5117527-.384034.3108846-.1869371.491726-.6055138.7680679-1.2415065l.2844696-.6420885c.2214799-.4775025.6319288-1.0301863.92859-1.4325076.3088527-.4165447.3982574-.5425241.4246724-.6928866.0060958-.0325108.0081277-.0670536.0081277-.1076921 0-.1300432-.0304789-.3210442-.0894047-.6847589"></path><path d="m27.2802269 26.3280666c-1.1480379.4124809-2.568354 1.1846126-3.5579017 1.7637114-1.2211873.711174-2.6618226 1.4690822-3.5030398 1.8388927-.955005.4206086-2.4118957.8838876-2.6821418.8798238-.2092883-.0020319-.3840339.1666179-.386084.3779382-.0020138.2113202.166636.3840339.3779563.3881178.5161091.0040438 2.2351182-.6095977 2.9991222-.9448655.8656003-.382002 2.3367145-1.1541337 3.5802529-1.8815631 1.3796775-.8026106 2.5642902-1.391869 3.4298905-1.7027537.9753243-.3515231 2.0400533-.6867908 3.3140707-.6156734 1.3410709.0772132 1.773871.2519588 2.2716928.4571833.5283007.2153841 1.3410709.7071101 1.3491986.7111739.1828733.109724.4165448.0528301.5262687-.1300432.1076921-.1788095.0528301-.4145128-.1300432-.5242368-.0345427-.0203193-.873728-.5262688-1.4528268-.766036-.6136416-.2519588-1.1561657-.4348321-2.5216197-.5120452-1.4182841-.0792451-2.6089925.298693-3.6147957.6603758"></path><path d="m5.10622907 37.9145128.43280016-1.5462954-1.09520791-.790419.59941806-2.1436816 1.33700705-.0853408.46531097-1.668211-6.32538444.6075458-.52017296 1.8653077zm-1.2455704-4.4214701-.3962255 1.4325075-2.02989369-1.3593582.00406386-.0162554z"></path><path d="m8.03362431 31.5066322c.18084137-.2641503.36168275-.8168341.41044897-1.1053675.07518125-.4612471.11988361-.9468774-.67256738-1.5015931l-4.23250106-2.8893982.90827075-1.2963685 4.62059885 3.1657401c1.04440976.7294613 1.47314606 1.7230729.67866316 2.8853344-.1666179.2417991-.38200202.5608114-.38200202.5608114z"></path><path d="m10.9835739 25.7603466 1.3004324-.9407816-.3637147-1.2984005 1.80435-1.3044962 1.0992717.7660359 1.4040606-1.0159628-5.325677-3.4644331-1.56864659 1.1358464zm1.7799669-4.2325011-1.2029.8696642-.7416529-2.3265549.0142235-.0101596z"></path><path d="m18.8320898 17.8474186-2.3367145-2.3224909 1.7901265-.438896 1.4325076 1.6621152.5242368-2.1416496 1.6824344-.410449-1.0139309 3.1433889 2.5886732 2.5744498-1.8307649.4470236-1.6336682-1.8449884-.5831627 2.3895445-1.7433922.4267044z"></path><path d="m35.3268556 60.4428785-.0060958.0040639.2052245 2.0319256-.302757.136139-1.3512305-1.5198804-.0060958.002032.792451 1.7698072-.3880978.1727136-.9489092-2.1213303.6380246-.2865015 1.1907084 1.3674859.0060958-.0020319-.219448-1.802318.6238012-.2763419.9468773 2.1192984-.3880978.1747456z"></path><path d="m37.6999415 60.8409327c.0975324.002032.300725-.0203192.491726-.1422348.1564583-.0995643.245863-.2763418.1178517-.4734386-.0873728-.138171-.2072564-.1503625-.4449917-.1341071l-.247895.0121915c-.2621184.0162554-.4835983-.0589258-.6441204-.3108846-.2214799-.353555-.0487662-.7172697.2804057-.9265581.2092884-.1320751.3880978-.1706817.4551514-.188969l.1727137.3129165c-.1076921.0182873-.2539907.0406385-.4206086.1483306-.1828733.1117559-.2133522.2661822-.1280114.4023212.0934686.1462987.2275757.1402029.3759063.1320752l.2865015-.0142235c.3129165-.0182873.5018856.0386066.6745993.3129166.2539907.4002893.0894047.7721317-.2844696 1.0078351-.1970968.1239474-.3677785.1930329-.5039175.1950648z"></path><path d="m39.2283559 57.9279642-.4063851.3251081-.2133522-.2661823 1.1460061-.9103027.2113202.2641504-.4043532.3210442 1.2354108 1.5544231-.3332358.2641503z"></path><path d="m40.5657694 56.3412335.8696641-.8595046.2377353.2397672-.5608114.5608115.4328001.438896.5343965-.5283007.2377352.2417991-.5323645.5283007.4815664.4876621.5872265-.5851945.2417992.243831-.8899835.8818558z"></path><path d="m47.8772473 49.8805228.1828733-.4002894-2.4261192-.2865015-.1950648.4246725 1.7901264 1.6763386.1788095-.3880978-.4388959-.3840339.3312038-.7274294zm-1.1683572.4246724-.8534088-.7416528.0020319-.0081277 1.1094314.1869371zm-.9062388 3.4217628.3169804-.5140772c.3393315-.5506519.2621184-1.1460061-.4043532-1.556455-.6542801-.4043532-1.1927404-.2804058-1.5727105.3352677l-.3190123.518141zm-1.47721-1.4101564.0751813-.1219156c.2519588-.408417.6420885-.4206086 1.0769206-.1544263.4328001.2682142.5973861.6238012.3454273 1.0301863l-.0731493.1239475zm-.272278 3.7306154.2661823-.3332358-.7802595-.6258331.0609578-.0731493c.0995643-.1219155.2113203-.1706817.3921616-.0995644l.7335252.2925973.2824376-.353555-.8798238-.3190123c-.2153841-.0772132-.3068207-.0264151-.3698104.0325108l-.0101596-.0060958c.1320751-.2275757.0914366-.5018856-.1422348-.6928866-.3332358-.2661823-.6522482-.164586-.9123346.1584902l-.4551514.5648753zm-.7579083-1.1541337-.5343964-.4287363.1076921-.1341071c.1503625-.1889691.2905653-.2560227.4978217-.0894048.1808414.1483306.1808414.3393316.0386066.5181411zm-10.7671738 8.7230566.4246725-.1178517-1.3451348-2.0400533-.4490556.1259794-.1300432 2.4484704.4145128-.1158198.0101597-.5831626.7700998-.2153841zm-1.0789525-.6197373.0182873-1.1317825.0060958-.002032.5709711.9651647z"></path><path d="m47.2569004 45.7069476-.0040638.0060957 1.6864982 1.1541338-.0914366.3210442-2.0339576.0487662-.0020319.0081278 1.8632758.5364283-.1178517.4084171-2.2330862-.6441205.191001-.6705354 1.8145095-.028447.0040639-.0060957-1.5198804-.9976755.1889691-.6522481 2.2330863.6441204-.1178517.4104489z"></path><path d="m3.37848272 40.1988036c0 12.2484476 9.96456318 22.2130108 22.21504278 22.2130108 1.3288793 0 2.6597906-.1178517 3.9561591-.3515231l-.0325108-.1930329c-1.2882408.2316395-2.6069605.3494912-3.9236483.3494912-12.1407556 0-22.01997792-9.8771904-22.01997792-22.017946z"></path><path d="m25.5925095 18.1802481c12.1407556 0 22.017946 9.8771904 22.017946 22.0179459 0 1.2984005-.1137879 2.596801-.3372997 3.8626906l.191001.0325108c.2275757-1.2760493.3413635-2.5866413.3413635-3.8952014 0-12.2484476-9.9645632-22.2150427-22.2130108-22.2150427z"></path><path d="m1.9094005 40.1988036c0 13.0591859 10.624939 23.682093 23.682093 23.682093 1.4182841 0 2.8386001-.1259793 4.2223415-.3759062l-.1584902-.8879515c-1.3329432.2377353-2.6983972.3596508-4.0638513.3596508-12.5593322 0-22.7778861-10.2185539-22.7778861-22.7778861z"></path><path d="m25.5925095 17.4203079c12.5593322 0 22.7778862 10.2185539 22.7778862 22.7799181 0 1.3431028-.1178517 2.6882375-.3494912 3.9988296l.8899834.1564582c.2417991-1.3593582.3637147-2.759355.3637147-4.1552878 0-13.0612179-10.6229072-23.684125-23.6820931-23.684125z"></path><path d="m1.18339348 40.1988036c0 13.4594753 10.95004712 24.4074905 24.40952242 24.4074905 1.4609545 0 2.921909-.1300432 4.3462889-.3860659l-.0345427-.191001c-1.4121884.2539907-2.8650152.382002-4.3117462.382002-13.3538151 0-24.21242564-10.8606424-24.21242564-24.2124256z"></path><path d="m25.5925095 15.9851588c13.3517832 0 24.2124256 10.8606424 24.2124256 24.2144576 0 1.4264118-.1259793 2.8568874-.3718423 4.2467245l.1930329.0345427c.2499268-1.4020286.3738743-2.8426639.3738743-4.2812672 0-13.4594753-10.9480152-24.4095224-24.4074905-24.4095224z"></path><path d="m36.7997984 24.5956468-.0894047 4.1999902c-.0020319.1280114.0609578.2519588.1686498.3230762.0081277.0060958.9671966.6603758 1.4792419 1.4040606.4998537.7253975.6217692 1.584902.6238011 1.5950616.028447.2072564.2214799.355587.4307683.3251081.1930329-.026415.3312038-.1889691.3312038-.3779381 0-.0182874 0-.0345428-.0040638-.0507982-.0060958-.0426704-.1442667-1.0423778-.7538444-1.9242335-.4592152-.6685036-1.1805488-1.2394747-1.5076888-1.4812738.0060958-.272278.0426704-2.0441172.0609578-2.9483241 2.7451315 1.1541338 4.1817029 3.5213271 4.1817029 7.020303 0 5.0147924-3.0702396 8.5158003-7.4652947 8.5158003-3.9927339 0-5.356156-3.3221984-6.2583309-5.51871l-.3027569-.7213336c-.2986931-.6705354-.7416529-1.1216229-1.3166878-1.339039-1.0870803-.408417-2.3204591.1605222-2.7837381.3759063-.191001.0873728-.27431.3129165-.1869372.5059495.0894047.188969.3169804.2743099.5059495.1849052.3840339-.1767775 1.4060925-.6481843 2.1944796-.3535551.384034.1462987.6745993.4510875.8899835.9367177l.2946292.6989824c.9204623 2.2432459 2.4606619 5.9941806 6.9634091 5.9941806 4.8441106 0 8.2272668-3.8159563 8.2272668-9.2798043 0-4.2243733-1.993319-7.0060795-5.683296-8.085032"></path></g></svg>