<svg height="39" viewBox="0 0 100 39" width="100" xmlns="http://www.w3.org/2000/svg"><g fill-rule="evenodd"><path d="m14.2288471 22.9374467c1.0007026-1.1265579 1.031399-1.7542993.6277414-3.0005731-1.3613854-4.2023372-3.6943118-7.7738634-5.32122102-11.94703904-.19338732-.49574686.153482-1.41049959.95312322-1.54249411.5156995-.08594992 1.1986944.74592253 1.824901.36375234 1.6499315-1.00377229 4.6812011-3.61757078 5.6481377-5.01425699.1012981-.14887754.3484041-.52951291.3131033-.63234585-.1412035-.41133176-.8088502-.86103403-1.2938533-1.09279185-.6707164-.3223122-4.860775.40826212-8.01022568 2.88085717-1.901642 1.49184506-4.55074135 3.95369636-3.90458213 6.83148389.97461072 4.33126214 5.39028791 11.89792474 5.39028791 11.89792474.3698916.8195939-.0813455 1.0191205-.65076369 1.0805133-.19338733.0184179-.52797809-.6768556-.78582785-.7582011-.93317057-.2870113-6.11625777 2.2546506-8.84516776 4.4325602-.79810641.6354155 1.34296752 3.3612559 2.35594873 3.1878212 4.53539315-.7735493 10.08990677-4.8868669 11.69839817-6.6872108"></path><path d="m54.505287 21.4581872c-.5632789.6400199-2.2592551 2.0535892-3.7741224 3.0082472-.3422649.2179445-.6630423-.3299863-.6384851-.494212.3637523-2.6076592 2.3237175-4.2361033 4.5983207-5.8138983-.2992899 2.081216-.1151115 2.7442582-.1857132 3.2998631m31.5819915-13.16261649c.1580865 2.40045849-1.9430822 6.45852259-3.5669217 8.30951559-.1765043-2.30223 1.7236029-6.5935868 3.5669217-8.30951559m12.5701759 12.08977729c-.0997633-.0245571-2.2746032 2.7273752-3.589944 3.5055289.1718998-.2701283.230223-.3576131.5356522-.9423795.963867-1.8479233 1.184881-3.6313841.5218388-5.3795441-.3269167-.8687082-1.6806279-2.5447316-2.7396537-3.0926624-.5141647.7275047-2.4971522 3.112615-2.4311549 3.0573615 0 0 .3299863.6538333.2854765.7198306-.904009 1.4289174-2.3052997 3.2000997-3.9030473 4.6320868-1.0759088.9654018-3.7188689 2.9207625-4.7425939 1.1419061-.3345907-.5893709-.7766189-2.3513443-.2624542-3.0711749.6031843-.8364769.9700063-1.3951514 1.7788564-2.5616146 2.4142719-3.4840414 5.6143716-8.66559379 4.750268-12.80960784-.2824069-1.34757197-2.2439069-1.47956649-3.2354006-.77661893-3.2246569 2.27767291-6.3572245 8.37551287-6.6427011 13.49720727-.0629276 1.0759088-.1657605 1.5593771-.1795739 2.4280852-1.253948 1.330689-3.5101334 3.1970301-4.2990309 3.1433114-.6814601-.0491142-.9930285-.8380117-1.0666999-1.5071932-.0629276-.5863013.2716632-1.8110877.2256186-1.8110877-.8671734.0046045-2.1763748-.0046044-3.1525204 0-.9162875 2.2270239-1.6576056.9454492-4.3420058 3.0542919 2.4372942-2.9008099 3.7956099-4.016624 6.8099964-5.6128368.7643404-.4067273 1.2785051-.4665853 1.2079034-.5786272-.6369503-1.0022374-1.5517031-2.7381189-2.4848736-2.4741298-1.4289175.3975183-3.172473 1.3276193-4.7778947 2.6813305-1.9123858 1.6146307-3.1095454 3.4241835-4.4187469 4.7794296-.8088501.8825215-2.268464 1.8049483-3.3965567 1.134232-1.0329338-.6108584-1.2416694-2.2116757-.9853544-3.8861643.0997633-.6584378.7090868-1.74816 1.3537112-2.9207625 1.9630348-3.5546432 3.428788-7.37174056 3.7142645-11.3239021.0414401-.57248787-1.3567809-1.27390061-1.9691741-.82112871-2.4741299 1.84485366-5.1278337 6.90515521-5.7586447 10.40301011-1.2002293.4972817-2.7243055 1.4028255-3.7511001 2.1917229-2.0428455 1.5685861-3.9107214 3.4226487-4.8791929 4.9912347-.6062539 1.0145161-.9393098 1.3997559-1.4258478.4282148-1.44887-2.8624393-1.4534745-6.5383332-1.9047116-6.7179072 0 0-.5218388-.2194792-.8195939-.1427382-.6569029.1765043-2.0351713 3.3627906-5.8522687 6.7777651.3023595-1.2232515 1.0022375-3.9276044 1.2125078-5.8614776-.0184178-.0552535.0122786-.1273901-.0199527-.1550168-.4374237-.400588-2.5723583-1.6192351-2.8516955-1.2171123-.1826436.2670587-.5556049 1.1633936-1.0452125 2.1134472-1.0221901 1.9968008-2.1226561 3.5515735-2.8946705 4.4187468-1.3383631 1.3414327-2.3083693 2.1103775-3.1172195 2.0566588-.6783904-.0491142-.9945633-.8380117-1.0636303-1.5071932-.0629276-.5863013.2716632-1.8110877.2240838-1.8110877-.8656385.0046045-2.1779096-.0046044-3.1525203 0-.9178224 2.2270239-1.6576057.9454492-4.3450755 3.0542919 2.438829-2.9008099 3.7971447-4.016624 6.8115312-5.6128368.7658752-.4067273 1.2815747-.4665853 1.2094382-.5786272-.6369503-1.0022374-1.5532379-2.7381189-2.4848736-2.4741298-1.4304523.3975183-3.1740078 1.3276193-4.7778947 2.6813305-2.2316283 1.8832242-3.5101334 3.9797883-5.0495579 5.3902879-.9607973.8809867-3.2507488 3.129498-3.1003364 3.1709382 1.2646917 1.2846443.0813455.9362402 2.9560633-.7351788.0552536-.0414401-.1841784 1.7282073-.0828802 1.7803912.5648137.2870114 2.0474499 1.4350567 2.2178149 1.304597 0 0 3.5224119-3.9506267 5.9504972-4.4386995 1.9522911-.3944487.1412034 3.2338658 2.9775508 3.8278412 1.9047117.3959835 5.2061095-3.8263063 5.7908759-4.4310254.2977551-.3223122.6093236-.6829949.8717778-1.0390732-.0613928.7213654-.707552 3.6344538-.9469839 4.3788415-.196457.6047191 2.0060097 1.9308036 2.4833388 1.6683494 2.1257257-1.1726025 5.5913493-5.3611263 7.0755202-7.5681975.3008248.9700062.623137 1.7727171.9868893 2.6874698.9746107 2.4633862 1.9814526 2.3436702 3.4211138 1.9185251.1350642 1.8770848 2.7995117 3.2277265 3.2430747 3.0450829 1.0943267-.4543068 4.2882871-2.6322164 5.7325528-4.4571174.5034209 1.2032989.9700062 2.1886534 2.0996338 2.8762528.7965715.4865379 1.8509929.5602093 4.5660895-1.5716557.0521839-.0399054-.1811088 1.7466251-.0813455 1.798809.563279.2870114 2.2531158 1.304597 2.2531158 1.304597s3.4825066-3.9214651 5.9105919-4.4064682c1.9568955-.3913791.1488776 3.2016345 2.9821553 3.7956099 1.7266725.3591478 4.9390508-2.9898294 5.9750543-4.0872257.5433263-.3913791.1811088 1.125023 1.0329339 2.4326897.6553681 1.0129812 2.1257257 2.4188763 4.9912347 1.5087281.597045-.1918525 2.012149-.7029476 4.6505046-3.4732977 1.1864159-1.2493435 2.3866452-2.8777876 3.1801471-3.9905321.0046045.0015348.323847-.3867746.3959836.2225489.0874847.733644.0690669 1.1971596-.4512371 2.3989237-.5417915 1.2493435-2.0443803 3.078849-2.9315062 3.7894706-.3131033.2517105.827268 1.6898369.9930285 1.6683494 3.9322089-.4803987 6.9803615-3.606827 9.3700762-7.1353783.0383709-.0537187-.9254964-.7766189-1.3414327-.877917"></path><path d="m99.1155982 26.7870823c-.0537187-.0291616-.1381338-.0445098-.2563149-.0445098h-.179574v.4343541h.1903177c.0890196 0 .1565516-.009209.2010614-.0276268.0828803-.0322312.1243204-.0951588.1243204-.187248 0-.0874848-.0260919-.1458079-.0798106-.1749695zm-.2286882-.1887829c.1488776 0 .2578498.0138134.3269167.042975.1243204.0521839.1857132.153482.1857132.3038943 0 .1059026-.0383705.1857133-.1166463.2363623-.0414402.026092-.0982285.0460446-.1718999.0583232.0920892.0153482.1611561.0537187.2041311.1166463.0445098.0629276.0659973.1258552.0659973.1857132v.0874848c0 .0276267.0015348.0567883.0030696.0890195s.0046045.0521839.0107437.0629276l.0061393.0138134h-.1979918c0-.0030696-.0015348-.0076741-.0015348-.0122785-.0015348-.0030697-.0015348-.0076741-.0030696-.0122786l-.0046045-.0383705v-.0951588c0-.1381338-.0383705-.2286882-.1135767-.2747328-.0445097-.0245571-.1227856-.0383705-.2348274-.0383705h-.1657606v.4711897h-.2118051v-1.1971596zm-.6415547-.0613928c-.1826436.1841784-.273198.4051925-.273198.6645771 0 .2609194.0905544.4834683.2716631.6691815.1826436.1841784.4036577.2762676.6645771.2762676s.4819335-.0920892.6645771-.2762676c.1826435-.1857132.2731979-.4082621.2731979-.6691815 0-.2593846-.0905544-.4803987-.2731979-.6645771-.1841784-.1841784-.4051925-.2762676-.6645771-.2762676-.2578498 0-.4788638.0920892-.6630422.2762676zm1.4365915 1.4365915c-.21334.2148748-.4711898.3223122-.7735493.3223122s-.5586745-.1074374-.7704796-.3223122c-.2118052-.2118051-.3177078-.4711897-.3177078-.7735492 0-.2992899.1074374-.5571397.3192426-.7689449.21334-.2118051.4681201-.3177077.7689448-.3177077.3023595 0 .5602093.1059026.7735493.3177077.2118052.2118052.3177077.4681201.3177077.7689449 0 .3023595-.1059025.5602093-.3177077.7735492z"></path><path d="m30.1148482 36.0055183c.656903 0 1.0759088-.3437997 1.0759088-.8748475v-.0138133c0-.5602093-.4036576-.8671733-1.0835829-.8671733h-1.3368282v1.7558341zm-2.2638595-2.5923111h2.3313916c.6569029 0 1.1726025.1933874 1.5087281.5233737.2762676.2839417.4328192.6722511.4328192 1.1280927v.0138134c0 .8594992-.5141647 1.3751987-1.2462739 1.5839342l1.4104996 1.9799178h-1.0820481l-1.2846443-1.8233661h-1.151115v1.8233661h-.9193572z"></path><path d="m34.7450932 33.4132072h3.8769554v.8211288h-2.959133v1.3598505h2.6230074v.8211287h-2.6230074v1.4058951h2.9959687v.8211287h-3.9137911z"></path><path d="m40.8914335 37.8806079.5525352-.656903c.5003513.4328192 1.0022374.6799253 1.6514663.6799253.5678834 0 .9254965-.2624543.9254965-.6584378v-.0153482c0-.3729613-.2087355-.5740227-1.1802766-.7981064-1.1127445-.2685935-1.7404859-.5985798-1.7404859-1.5624468v-.0138134c0-.8963349.7474573-1.5164022 1.7865305-1.5164022.7612707 0 1.3659898.230223 1.8970375.656903l-.4926772.6952735c-.4711897-.3514738-.9423795-.5387218-1.4197085-.5387218-.5387218 0-.8518251.2762676-.8518251.6200672v.0153482c0 .4036577.2394319.5832316 1.2401345.8211287 1.1050705.2685935 1.680628.6645771 1.680628 1.5317504v.0153482c0 .9776804-.7689449 1.560912-1.867876 1.560912-.7996412 0-1.5532379-.2762676-2.1809792-.8364769"></path><path d="m51.7892695 36.0428144v-.0153482c0-1.0160509-.7397832-1.8602019-1.7773216-1.8602019-1.0390731 0-1.7635082.8288028-1.7635082 1.8448537v.0153482c0 1.0160508.7397833 1.8602018 1.7773216 1.8602018 1.0390732 0 1.7635082-.8288028 1.7635082-1.8448536m-4.5046967 0v-.0153482c0-1.4718924 1.1357668-2.7043529 2.7411885-2.7043529 1.6069566 0 2.7273752 1.2171123 2.7273752 2.6890047v.0153482c0 1.4718924-1.1357668 2.7043529-2.7411886 2.7043529-1.6069565 0-2.7273751-1.2171123-2.7273751-2.6890047"></path><path d="m57.6217391 36.0055183c.6569029 0 1.0759088-.3437997 1.0759088-.8748475v-.0138133c0-.5602093-.4036577-.8671733-1.0835829-.8671733h-1.3368283v1.7558341zm-2.2638596-2.5923111h2.3313916c.656903 0 1.1726025.1933874 1.5087281.5233737.2762676.2839417.4328193.6722511.4328193 1.1280927v.0138134c0 .8594992-.5156996 1.3751987-1.2462739 1.5839342l1.4104996 1.9799178h-1.0820481l-1.2861792-1.8233661h-1.1495802v1.8233661h-.9193572z"></path><path d="m63.5134526 34.2645719h-1.6576056v-.8518251h4.2422426v.8518251h-1.6576057v4.3773067h-.9270313z"></path><path d="m68.0990344 37.8806079.55407-.656903c.5003514.4328192 1.0007027.6799253 1.6499316.6799253.5678834 0 .9270312-.2624543.9270312-.6584378v-.0153482c0-.3729613-.2087355-.5740227-1.1818114-.7981064-1.1127445-.2685935-1.7404859-.5985798-1.7404859-1.5624468v-.0138134c0-.8963349.7474574-1.5164022 1.7865305-1.5164022.7612708 0 1.3675247.230223 1.8970376.656903l-.4926773.6952735c-.4711897-.3514738-.9408446-.5387218-1.4197085-.5387218-.5387218 0-.8518251.2762676-.8518251.6200672v.0153482c0 .4036577.2394319.5832316 1.2401346.8211287 1.1050704.2685935 1.6806279.6645771 1.6806279 1.5317504v.0153482c0 .9776804-.7689448 1.560912-1.8678759 1.560912-.7981065 0-1.5532379-.2762676-2.1809793-.8364769"></path></g></svg>