<svg height="40" viewBox="0 0 107 40" width="107" xmlns="http://www.w3.org/2000/svg"><g fill="#fff"><path d="m32.7559 39.113h.329v-39.113h-.329z"></path><path d="m12.4826 3.6584.521 1.5 1.589.033-1.266.96.46 1.521-1.304-.908-1.304.908.46-1.521-1.266-.96 1.589-.032z"></path><path d="m22.7918 6.0643-.202 1.576 1.406.737-1.561.294-.267 1.566-.762-1.393-1.572.229 1.09-1.155-.704-1.424 1.436.68z"></path><path d="m4.807 6.6173-.705 1.424 1.09 1.155-1.572-.23-.763 1.393-.266-1.566-1.561-.295 1.407-.737-.201-1.575 1.135 1.11z"></path><path d="m4.3016 28.079c-.103.011-.178.102-.168.206.011.104.103.179.207.168.007 0 .658-.064 1.297.08.683.153 1.625.483 2.076.669l.074.031c1.736.717 2.121.75 2.288.555.301-.351-.145-.763-.292-.898-.077-.071-.195-.066-.267.01-.032.037-.049.082-.049.128 0 .051.021.101.061.138.226.209.268.306.269.349-.138.003-.563-.092-1.866-.63l-.075-.031c-.463-.19-1.432-.53-2.137-.688-.7-.158-1.389-.09-1.418-.087"></path><path d="m12.1155 26.9585c0 .004-.042.391-.219.771-.188.403-.818 1.499-.824 1.509-.04.07-.031.157.02.217.053.062.139.082.213.052.007-.003.754-.301 1.002-.366l.995-.25c.1-.026.137-.124.11-.225-.024-.101-.097-.158-.198-.14l-1.002.25c-.124.033-.345.113-.553.191.201-.358.463-.833.578-1.079.204-.44.25-.874.252-.892 0-.007 0-.013 0-.019 0-.095-.071-.177-.169-.187-.103-.011-.195.065-.205.168"></path><path d="m8.5601 30.8637c-.028.1.032.203.132.231.004.001.425.118.715.431.159.172.31.506.356.716.039.178.065.55.065.554.007.104.097.182.2.175.104-.006.183-.097.176-.2-.002-.016-.028-.405-.074-.61-.058-.261-.234-.661-.447-.891-.367-.394-.872-.534-.893-.539-.101-.027-.203.033-.23.133"></path><path d="m18.5653 28.1379c-.199.214-.136.691.223 1.701.13.364.056.632.007.659-.067.035-.285-.048-.449-.236-.002-.002-.004-.004-.007-.007-.532-.549-.816-.719-1.049-.626-.266.106-.463.815-.558 1.227-.155.678-.271.858-.331.904-.061-.129-.106-.511-.106-.911 0-.078.002-.156.006-.233 0-.001 0-.015 0-.039 0-.212-.019-1.205-.346-1.323-.339-.124-.876.431-.882.437-.112.121-.688.768-1.136 1.605-.417.778-.771 1.756-.787 1.797-.035.098.016.206.113.241.098.036.206-.015.241-.112.003-.01.362-.995.765-1.749.435-.813 1.017-1.457 1.081-1.528.127-.138.344-.285.452-.324.062.157.124.603.124.9 0 .027 0 .053-.002.078-.002.048-.005.146-.005.269 0 .375.032.99.237 1.194.064.063.145.096.229.092.408-.021.576-.611.715-1.214.113-.495.26-.856.334-.952.057.017.222.103.636.529-.002-.003-.006-.004-.007-.007.237.273.629.47.91.319.187-.1.264-.334.264-.593 0-.172-.034-.357-.092-.523-.266-.741-.317-1.073-.317-1.219 0-.064.01-.091.016-.102.118-.122.373-.118.849.014.486.135 1.078.34 1.082.343.098.033.205-.018.24-.116.034-.098-.018-.206-.116-.24-.024-.008-.608-.211-1.106-.35-.47-.13-.943-.209-1.228.095"></path><path d="m16.109 28.0061c-.052.245-.015.459.111.636.166.234.463.349.685.379.248.032.746-.082.9-.3.111-.159.209-.476.22-.511.029-.099-.027-.204-.126-.235-.099-.03-.203.026-.234.125-.035.112-.11.321-.167.404-.054.063-.376.166-.543.143-.112-.014-.325-.078-.428-.223-.063-.089-.079-.2-.05-.341.088-.42.555-.408.608-.405.104.005.193-.074.199-.177.006-.104-.073-.192-.176-.198-.29-.018-.874.106-.999.703"></path><path d="m7.3858 21.4536c-.004.006-.316.563-.434.734-.098.142-.505.941-.505 1.118 0 .152.07.269.978.408.102.016.198-.055.214-.158.001-.01.002-.019.002-.029 0-.09-.066-.171-.16-.185-.219-.034-.477-.085-.619-.126.088-.223.307-.681.399-.814.128-.185.44-.74.453-.764.016-.029.024-.06.024-.091 0-.066-.035-.13-.097-.164-.09-.051-.204-.019-.255.071"></path><path d="m8.4034 20.4822c-.46.444-.46.577-.46.634 0 .226.244.373.474.395l.102.006c.312.015.433.046.478.073.001.04.005.134.005.134.001.045.003.104.003.158 0 .03 0 .057-.003.081-.056-.013-.135-.038-.189-.054-.195-.061-.349-.109-.475-.046-.153.076-.172.256-.2.529-.018.166-.04.373-.093.592-.024.098-.034.207-.034.317 0 .285.071.575.164.7 0 0 .032.042.038.051-.087.003-.277-.008-.758-.087-.102-.017-.199.053-.216.155-.017.103.052.199.155.216.753.124.897.102 1.02.06l.012-.004h-.001c.141-.024.194-.111.214-.16.014-.032.018-.064.018-.094 0-.125-.088-.241-.162-.339l-.019-.025c-.031-.043-.091-.25-.091-.472 0-.076.008-.155.026-.229.06-.244.082-.465.101-.642.007-.071.016-.153.026-.21.052.012.117.032.163.047.155.048.301.094.42.072.224-.04.261-.261.261-.473 0-.055-.003-.109-.005-.16l-.004-.147c0-.38-.545-.405-.837-.419l-.081-.004c-.044-.004-.082-.019-.11-.033.059-.081.187-.224.318-.351.038-.037.058-.086.058-.135 0-.047-.018-.094-.053-.131-.072-.075-.191-.077-.265-.005"></path><path d="m6.8976 19.5013c-.112.175-.049.4.024.558.097.21.445.462.549.533.085.059.202.038.261-.048.023-.032.034-.07.034-.106 0-.06-.028-.119-.081-.156-.174-.12-.385-.301-.422-.38-.039-.086-.05-.148-.05-.18 0-.006.001-.011.002-.015.008-.004.028-.01.072-.01.299 0 .817.092 1.583.53.766.437 2.687 1.721 3.772 2.601 1.12.908 2.118 1.774 2.603 2.259.327.328.82.82.82.974 0 .002 0 .005-.001.008-.006.063-.008.076-.227.146l-.133.044c-.377.132-.57.318-.57.552 0 .074.024.164.05.267.02.078.058.226.058.307 0 .018-.003.032-.006.042-.06.085-.196.089-.383.083-.105-.002-.203-.006-.291.022-.07.021-.141.062-.218.104-.112.063-.283.159-.343.11-.068-.055-.102-.148-.102-.284 0-.088.015-.194.042-.32l.073-.291c.046-.174.079-.302.079-.404 0-.051-.008-.096-.029-.136-.05-.101-.159-.144-.423-.241-.12-.043-.34-.124-.389-.169-.038-.051-.061-.157-.061-.286 0-.038.002-.077.005-.117.011-.114.071-.38.092-.472.003-.015.007-.029.007-.045 0-.084-.058-.161-.145-.182-.101-.025-.201.038-.226.139-.01.037-.086.364-.102.526-.004.048-.008.1-.008.154 0 .179.033.379.145.52.087.11.266.181.552.286.061.022.144.053.2.076-.012.068-.039.172-.062.255l-.075.307c-.019.085-.051.231-.051.393 0 .203.051.428.241.583.259.21.575.032.765-.073.055-.031.111-.064.143-.073.028-.009.107-.007.171-.005.21.005.526.014.704-.249.122-.178.058-.43.001-.653-.015-.061-.037-.147-.037-.174 0-.022.059-.105.318-.196l.12-.041c.212-.067.452-.144.489-.462.036-.311-.293-.657-.927-1.29-.493-.495-1.502-1.37-2.633-2.286-1.098-.89-3.046-2.193-3.822-2.636-.838-.478-1.424-.579-1.769-.579-.226 0-.336.098-.389.18"></path><path d="m12.2538 25.0254c-.023-.139-.049-.296-.055-.401l.002-.246c.002-.062.004-.119.004-.171 0-.177-.022-.306-.13-.379 0 0-.093-.058-.192-.124-.107-.072-.163-.169-.093-.334.019-.061.116-.299.172-.435.011-.023.016-.049.016-.073 0-.058-.028-.116-.077-.152l-.961-.7-.485-.361s.107 1.556.117 1.682c-.089.119-.286.385-.346.493-.082.148-.199.235-.358.267l-.603.11c-.085.013-.18.114-.162.217.019.102.123.158.223.154l.616-.113c.266-.053.477-.209.613-.453.045-.082.244-.352.359-.504.025-.033.039-.073.039-.114 0-.004 0-.009-.001-.013 0 0-.04-.545-.068-.94.279.203.546.397.675.491-.049.119-.111.274-.131.342-.019.068-.056.174-.061.283-.004.122.067.291.209.397 0 0 .129.084.194.128.047.02.059.091.059.129 0 .053-.003.113-.004.16l-.002.281c.007.125.036.292.06.44.015.089.032.202.037.255-.026.04-.086.121-.137.191-.156.211-.371.5-.496.77l-.145.326c-.077.178-.173.4-.225.437-.071.041-.414.103-.618.142l-.367.072c-.2.045-.456.15-.662.235-.092.038-.203.084-.243.095-.053-.002-.216-.056-.325-.091-.15-.048-.32-.103-.467-.13-.129-.024-.155-.028-.155-.104 0-.018.001-.042.004-.072.001-.009.001-.018.001-.027 0-.204-.164-.408-.514-.642-.157-.104-.412-.346-.43-.553 0-.006 0-.013 0-.021 0-.17.168-.361.304-.515l.114-.134c.071-.09.097-.182.097-.269 0-.015-.004-.028-.005-.042.178.011.358.022.358.022.104.006.194-.072.2-.176.006-.103-.073-.193-.177-.199l-.665-.042c-.077-.005-.148.039-.181.109-.012.025-.018.052-.018.079 0 .048.019.095.053.131.007.008.057.061.057.112 0 .015-.004.029-.015.042l-.1.117c-.17.193-.399.453-.399.765 0 .018.001.036.003.054.039.451.539.796.595.834.335.223.346.328.347.33-.003.027-.004.055-.004.082 0 .22.078.419.462.489.123.023.28.073.418.118.261.084.402.127.516.103.062-.014.154-.052.312-.117.193-.08.434-.178.603-.216l.35-.069c.387-.072.63-.12.744-.189.153-.092.242-.298.378-.611l.14-.316c.109-.235.311-.507.457-.705.152-.205.196-.267.209-.341.003-.016.004-.033.004-.053 0-.064-.015-.158-.044-.337"></path><path d="m13.4258 16.6152c-.565.203-1.264.583-1.751.868-.601.35-1.31.723-1.724.905-.47.207-1.187.435-1.32.433-.103-.001-.189.082-.19000894.186-.00099106.104.08200894.189.18600894.1910099.254.0019901 1.1-.3000099 1.476-.4650099.426-.188 1.15-.568 1.762-.926.679-.395 1.262-.685 1.688-.838.48-.173 1.004-.338 1.631-.303.66.038.873.124 1.118.225.26.106.66.348.664.35.09.054.205.026.259-.064.053-.088.026-.204-.064-.258-.017-.01-.43-.259-.715-.377-.302-.124-.569-.214-1.241-.252-.698-.039-1.284.147-1.779.325"></path><path d="m2.513 22.3174.213-.761-.539-.389.295-1.055.658-.042.229-.821-3.113.299-.256.918zm-.613-2.176-.195.705-.999-.669.002-.008z"></path><path d="m3.9537 19.1638c.089-.13.178-.402.202-.544.037-.227.059-.466-.331-.739l-2.083-1.422.447-.638 2.274 1.558c.514.359.725.848.334 1.42-.082.119-.188.276-.188.276z"></path><path d="m5.4055 16.3359.64-.463-.179-.639.888-.642.541.377.691-.5-2.621-1.705-.772.559zm.876-2.083-.592.428-.365-1.145.007-.005z"></path><path d="m9.2681 12.4415-1.15-1.143.881-.216.705.818.258-1.054.828-.202-.499 1.547 1.274 1.267-.901.22-.804-.908-.287 1.176-.858.21z"></path><path d="m17.3859 33.4046-.003.002.101 1-.149.067-.665-.748-.003.001.39.871-.191.085-.467-1.044.314-.141.586.673.003-.001-.108-.887.307-.136.466 1.043-.191.086z"></path><path d="m18.5538 33.6005c.048.001.148-.01.242-.07.077-.049.121-.136.058-.233-.043-.068-.102-.074-.219-.066l-.122.006c-.129.008-.238-.029-.317-.153-.109-.174-.024-.353.138-.456.103-.065.191-.084.224-.093l.085.154c-.053.009-.125.02-.207.073-.09.055-.105.131-.063.198.046.072.112.069.185.065l.141-.007c.154-.009.247.019.332.154.125.197.044.38-.14.496-.097.061-.181.095-.248.096z"></path><path d="m19.306 32.1669-.2.16-.105-.131.564-.448.104.13-.199.158.608.765-.164.13z"></path><path d="m19.9642 31.3861.428-.423.117.118-.276.276.213.216.263-.26.117.119-.262.26.237.24.289-.288.119.12-.438.434z"></path><path d="m23.5625 28.2064.09-.197-1.194-.141-.096.209.881.825.088-.191-.216-.189.163-.358zm-.575.209-.42-.365.001-.004.546.092zm-.446 1.684.156-.253c.167-.271.129-.564-.199-.766-.322-.199-.587-.138-.774.165l-.157.255zm-.727-.694.037-.06c.124-.201.316-.207.53-.076.213.132.294.307.17.507l-.036.061zm-.134 1.836.131-.164-.384-.307.03-.037c.049-.06.104-.084.193-.049l.361.144.139-.174-.433-.157c-.106-.038-.151-.013-.182.016l-.005-.003c.065-.112.045-.247-.07-.341-.164-.131-.321-.081-.449.078l-.224.278zm-.373-.568-.263-.211.053-.066c.074-.093.143-.126.245-.044.089.073.089.167.019.255zm-5.299 4.293.209-.058-.662-1.004-.221.062-.064 1.205.204-.057.005-.287.379-.106zm-.531-.305.009-.557.003-.001.281.475z"></path><path d="m23.2572 26.1525-.002.003.83.568-.045.158-1.001.024-.001.004.917.264-.058.201-1.099-.317.094-.33.893-.014.002-.003-.748-.491.093-.321 1.099.317-.058.202z"></path><path d="m1.6627 23.4416c0 6.028 4.904 10.932 10.933 10.932.654 0 1.309-.058 1.947-.173l-.016-.095c-.634.114-1.283.172-1.931.172-5.975 0-10.837-4.861-10.837-10.836z"></path><path d="m12.5952 12.6053c5.975 0 10.836 4.861 10.836 10.836 0 .639-.056 1.278-.166 1.901l.094.016c.112-.628.168-1.273.168-1.917 0-6.028-4.904-10.933-10.932-10.933z"></path><path d="m.9397 23.4416c0 6.427 5.229 11.655 11.655 11.655.698 0 1.397-.062 2.078-.185l-.078-.437c-.656.117-1.328.177-2 .177-6.181 0-11.21-5.029-11.21-11.21z"></path><path d="m12.5952 12.2313c6.181 0 11.21 5.029 11.21 11.211 0 .661-.058 1.323-.172 1.968l.438.077c.119-.669.179-1.358.179-2.045 0-6.428-5.228-11.656-11.655-11.656z"></path><path d="m.5824 23.4416c0 6.624 5.389 12.012 12.013 12.012.719 0 1.438-.064 2.139-.19l-.017-.094c-.695.125-1.41.188-2.122.188-6.572 0-11.916-5.345-11.916-11.916z"></path><path d="m12.5952 11.525c6.571 0 11.916 5.345 11.916 11.917 0 .702-.062 1.406-.183 2.09l.095.017c.123-.69.184-1.399.184-2.107 0-6.624-5.388-12.013-12.012-12.013z"></path><path d="m18.1108 15.7626-.044 2.067c-.001.063.03.124.083.159.004.003.476.325.728.691.246.357.306.78.307.785.014.102.109.175.212.16.095-.013.163-.093.163-.186 0-.009 0-.017-.002-.025-.003-.021-.071-.513-.371-.947-.226-.329-.581-.61-.742-.729.003-.134.021-1.006.03-1.451 1.351.568 2.058 1.733 2.058 3.455 0 2.468-1.511 4.191-3.674 4.191-1.965 0-2.636-1.635-3.08-2.716l-.149-.355c-.147-.33-.365-.552-.648-.659-.535-.201-1.142.079-1.37.185-.094.043-.135.154-.092.249.044.093.156.135.249.091.189-.087.692-.319 1.08-.173.189.071.332.221.438.46l.145.345c.453 1.103 1.211 2.949 3.427 2.949 2.384 0 4.049-1.878 4.049-4.567 0-2.079-.981-3.448-2.797-3.979"></path><path d="m50.5986 23.989c.652-.734.672-1.143.409-1.955-.887-2.738-2.407-5.065-3.467-7.784-.126-.323.1-.919.621-1.005.336-.056.781.486 1.189.237 1.075-.654 3.05-2.357 3.68-3.267.066-.097.227-.345.204-.412-.092-.268-.527-.561-.843-.712-.437-.21-3.167.266-5.219 1.877-1.239.972-2.965 2.576-2.544 4.451.635 2.822 3.512 7.752 3.512 7.752.241.534-.053.664-.424.704-.126.012-.344-.441-.512-.494-.608-.187-3.985 1.469-5.763 2.888-.52.414.875 2.19 1.535 2.077 2.955-.504 6.574-3.184 7.622-4.357"></path><path d="m76.8405 23.0252c-.367.417-1.472 1.338-2.459 1.96-.223.142-.432-.215-.416-.322.237-1.699 1.514-2.76 2.996-3.788-.195 1.356-.075 1.788-.121 2.15m20.577-8.576c.103 1.564-1.266 4.208-2.324 5.414-.115-1.5 1.123-4.296 2.324-5.414m8.19 7.877c-.065-.016-1.482 1.777-2.339 2.284.112-.176.15-.233.349-.614.628-1.204.772-2.366.34-3.505-.213-.566-1.095-1.658-1.785-2.015-.335.474-1.627 2.028-1.584 1.992 0 0 .215.426.186.469-.589.931-1.502 2.085-2.543 3.018-.701.629-2.423 1.903-3.09.744-.218-.384-.506-1.532-.171-2.001.393-.545.632-.909 1.159-1.669 1.573-2.27 3.658-5.646 3.095-8.346-.184-.878-1.462-.964-2.108-.506-2.101 1.484-4.142 5.457-4.328 8.794-.041.701-.107 1.016-.117 1.582-.817.867-2.287 2.083-2.801 2.048-.444-.032-.647-.546-.695-.982-.041-.382.177-1.18.147-1.18-.565.003-1.418-.003-2.054 0-.597 1.451-1.08.616-2.829 1.99 1.588-1.89 2.473-2.617 4.437-3.657.498-.265.833-.304.787-.377-.415-.653-1.011-1.784-1.619-1.612-.931.259-2.067.865-3.113 1.747-1.246 1.052-2.026 2.231-2.879 3.114-.527.575-1.478 1.176-2.213.739-.673-.398-.809-1.441-.642-2.532.065-.429.462-1.139.882-1.903 1.279-2.316 2.234-4.803 2.42-7.378.027-.373-.884-.83-1.283-.535-1.612 1.202-3.341 4.499-3.752 6.778-.782.324-1.775.914-2.444 1.428-1.331 1.022-2.548 2.23-3.179 3.252-.395.661-.612.912-.929.279-.944-1.865-.947-4.26-1.241-4.377 0 0-.34-.143-.534-.093-.428.115-1.326 2.191-3.813 4.416.197-.797.653-2.559.79-3.819-.012-.036.008-.083-.013-.101-.285-.261-1.676-1.055-1.858-.793-.119.174-.362.758-.681 1.377-.666 1.301-1.383 2.314-1.886 2.879-.872.874-1.504 1.375-2.031 1.34-.442-.032-.648-.546-.693-.982-.041-.382.177-1.18.146-1.18-.564.003-1.419-.003-2.054 0-.598 1.451-1.08.616-2.831 1.99 1.589-1.89 2.474-2.617 4.438-3.657.499-.265.835-.304.788-.377-.415-.653-1.012-1.784-1.619-1.612-.932.259-2.068.865-3.113 1.747-1.454 1.227-2.287 2.593-3.29 3.512-.626.574-2.118 2.039-2.02 2.066.824.837.053.61 1.926-.479.036-.027-.12 1.126-.054 1.16.368.187 1.334.935 1.445.85 0 0 2.295-2.574 3.877-2.892 1.272-.257.092 2.107 1.94 2.494 1.241.258 3.392-2.493 3.773-2.887.194-.21.397-.445.568-.677-.04.47-.46 2.368-.617 2.853-.128.394 1.307 1.258 1.618 1.087 1.385-.764 3.643-3.493 4.61-4.931.196.632.406 1.155.643 1.751.635 1.605 1.291 1.527 2.229 1.25.088 1.223 1.824 2.103 2.113 1.984.713-.296 2.794-1.715 3.735-2.904.328.784.632 1.426 1.368 1.874.519.317 1.206.365 2.975-1.024.034-.026-.118 1.138-.053 1.172.367.187 1.468.85 1.468.85s2.269-2.555 3.851-2.871c1.275-.255.097 2.086 1.943 2.473 1.125.234 3.218-1.948 3.893-2.663.354-.255.118.733.673 1.585.427.66 1.385 1.576 3.252.983.389-.125 1.311-.458 3.03-2.263.773-.814 1.555-1.875 2.072-2.6.003.001.211-.252.258.145.057.478.045.78-.294 1.563-.353.814-1.332 2.006-1.91 2.469-.204.164.539 1.101.647 1.087 2.563-.313 4.548-2.35 6.105-4.649.025-.035-.603-.506-.874-.572"></path>
<path d="m105.906 26.4972c-.035-.019-.09-.029-.167-.029h-.117v.283h.124c.058 0 .102-.006.131-.018.054-.021.081-.062.081-.122 0-.057-.017-.095-.052-.114zm-.149-.123c.097 0 .168.009.213.028.081.034.121.1.121.198 0 .069-.025.121-.076.154-.027.017-.064.03-.112.038.06.01.105.035.133.076.029.041.043.082.043.121v.057c0 .018.001.037.002.058s.003.034.007.041l.004.009h-.129c0-.002-.001-.005-.001-.008-.001-.002-.001-.005-.002-.008l-.003-.025v-.062c0-.09-.025-.149-.074-.179-.029-.016-.08-.025-.153-.025h-.108v.307h-.138v-.78zm-.418-.04c-.119.12-.178.264-.178.433 0 .17.059.315.177.436.119.12.263.18.433.18s.314-.06.433-.18c.119-.121.178-.266.178-.436 0-.169-.059-.313-.178-.433-.12-.12-.264-.18-.433-.18-.168 0-.313.06-.432.18zm.936.936c-.139.14-.307.21-.504.21s-.364-.07-.502-.21c-.138-.138-.207-.307-.207-.504 0-.195.07-.363.208-.501.139-.138.305-.207.501-.207.197 0 .365.069.504.207.138.138.207.305.207.501 0 .197-.069.365-.207.504z"></path>
<path d="m60.9491 32.5034c.428 0 .701-.224.701-.57v-.009c0-.365-.263-.565-.706-.565h-.871v1.144zm-1.475-1.689h1.519c.428 0 .764.126.983.341.18.185.282.438.282.735v.009c0 .56-.335.896-.812 1.032l.919 1.29h-.705l-.837-1.188h-.75v1.188h-.599z"></path>
<path d="m63.9659 30.8144h2.526v.535h-1.928v.886h1.709v.535h-1.709v.916h1.952v.535h-2.55z"></path>
<path d="m67.9705 33.7251.36-.428c.326.282.653.443 1.076.443.37 0 .603-.171.603-.429v-.01c0-.243-.136-.374-.769-.52-.725-.175-1.134-.39-1.134-1.018v-.009c0-.584.487-.988 1.164-.988.496 0 .89.15 1.236.428l-.321.453c-.307-.229-.614-.351-.925-.351-.351 0-.555.18-.555.404v.01c0 .263.156.38.808.535.72.175 1.095.433 1.095.998v.01c0 .637-.501 1.017-1.217 1.017-.521 0-1.012-.18-1.421-.545"></path>
<path d="m75.0709 32.5277v-.01c0-.662-.482-1.212-1.158-1.212-.677 0-1.149.54-1.149 1.202v.01c0 .662.482 1.212 1.158 1.212.677 0 1.149-.54 1.149-1.202m-2.935 0v-.01c0-.959.74-1.762 1.786-1.762 1.047 0 1.777.793 1.777 1.752v.01c0 .959-.74 1.762-1.786 1.762-1.047 0-1.777-.793-1.777-1.752"></path><path d="m78.871 32.5034c.428 0 .701-.224.701-.57v-.009c0-.365-.263-.565-.706-.565h-.871v1.144zm-1.475-1.689h1.519c.428 0 .764.126.983.341.18.185.282.438.282.735v.009c0 .56-.336.896-.812 1.032l.919 1.29h-.705l-.838-1.188h-.749v1.188h-.599z"></path><path d="m82.7097 31.3691h-1.08v-.555h2.764v.555h-1.08v2.852h-.604z"></path><path d="m85.6974 33.7251.361-.428c.326.282.652.443 1.075.443.37 0 .604-.171.604-.429v-.01c0-.243-.136-.374-.77-.52-.725-.175-1.134-.39-1.134-1.018v-.009c0-.584.487-.988 1.164-.988.496 0 .891.15 1.236.428l-.321.453c-.307-.229-.613-.351-.925-.351-.351 0-.555.18-.555.404v.01c0 .263.156.38.808.535.72.175 1.095.433 1.095.998v.01c0 .637-.501 1.017-1.217 1.017-.52 0-1.012-.18-1.421-.545"></path></g></svg>